<svg version="1.1" id="Layer_1" xmlns="http://www.w3.org/2000/svg" x="0px" y="0px"
	 width="100%" viewBox="0 0 454 404" enable-background="new 0 0 454 404" xml:space="preserve">
<path fill="#24272B" opacity="1.000000" stroke="none" 
	d="
M455.000000,3.000000 
	C455.000000,136.023331 455.000000,269.046661 454.531342,402.534973 
	C444.346741,402.993256 434.630798,402.986481 424.953979,402.515656 
	C424.996277,271.370514 424.999878,140.689453 424.998932,10.008389 
	C424.998932,7.678880 424.944611,5.349371 425.389587,3.013812 
	C435.575653,3.005174 445.287842,3.002587 455.000000,3.000000 
z"/>
<path fill="#24272B" opacity="1.000000" stroke="none" 
	d="
M1.000000,403.000000 
	C1.000000,269.976685 1.000000,136.953354 1.468639,3.465013 
	C9.652543,3.006504 17.367807,3.013008 25.043873,3.483704 
	C25.001823,135.627914 24.998711,267.307953 24.999758,398.987976 
	C24.999767,400.318634 25.054607,401.649323 24.609997,402.986084 
	C16.424095,402.994781 8.712048,402.997375 1.000000,403.000000 
z"/>
<path fill="#495158" opacity="1.000000" stroke="none" 
	d="
M0.999998,403.500000 
	C8.712048,402.997375 16.424095,402.994781 25.071121,402.996063 
	C158.975677,402.993195 291.945282,402.986481 424.914856,402.979736 
	C434.630798,402.986481 444.346741,402.993256 454.531342,403.000000 
	C454.667755,403.666656 454.454285,404.783752 453.979279,404.908997 
	C452.889648,405.196320 451.672485,405.000000 450.507111,405.000000 
	C302.169373,405.000000 153.831665,405.002930 5.493954,404.958588 
	C3.995870,404.958130 2.497976,404.333344 0.999998,403.500000 
z"/>
<path fill="#495158" opacity="1.000000" stroke="none" 
	d="
M25.083073,3.019513 
	C17.367807,3.013008 9.652543,3.006504 1.468639,3.000000 
	C1.333333,2.333333 1.548027,1.216341 2.023962,1.090954 
	C3.114909,0.803541 4.333333,1.000000 5.500000,1.000000 
	C153.833328,1.000000 302.166656,0.997052 450.500000,1.041404 
	C452.000092,1.041853 453.500000,1.666669 455.000000,2.500001 
	C445.287842,3.002587 435.575653,3.005174 424.928467,3.003980 
	C291.023315,3.006637 158.053192,3.013075 25.083073,3.019513 
z"/>
<path fill="#FDFDFD" opacity="1.000000" stroke="none" 
	d="
M25.043873,3.483704 
	C158.053192,3.013075 291.023315,3.006637 424.454529,3.010031 
	C424.944611,5.349371 424.998932,7.678880 424.998932,10.008389 
	C424.999878,140.689453 424.996277,271.370514 424.953979,402.515656 
	C291.945282,402.986481 158.975677,402.993195 25.544975,402.989960 
	C25.054607,401.649323 24.999767,400.318634 24.999758,398.987976 
	C24.998711,267.307953 25.001823,135.627914 25.043873,3.483704 
M144.648331,364.540466 
	C144.007843,364.682434 143.247772,364.652832 142.750092,364.999664 
	C141.449036,365.906494 140.262726,366.977966 139.030655,367.983765 
	C140.302704,369.014404 141.475327,370.727325 142.867981,370.930206 
	C145.570236,371.323883 148.396103,370.868896 151.785660,371.092773 
	C157.833954,375.469818 164.800812,377.460480 171.956512,376.229462 
	C180.364075,374.783081 188.545593,372.022766 197.309753,370.272278 
	C197.069519,371.122620 197.096298,372.255951 196.544754,372.776367 
	C193.470139,375.677368 192.805954,379.276428 194.662415,382.702393 
	C196.635132,386.342957 200.376999,385.044586 203.622543,384.508453 
	C203.913589,384.460388 204.242142,384.639526 204.550278,384.725769 
	C209.044144,392.266846 210.599457,392.450439 216.950760,386.261902 
	C217.504807,385.722076 218.219345,385.294067 218.932098,384.978455 
	C224.662704,382.440857 225.480026,379.854462 222.203568,374.685333 
	C221.421188,373.451019 220.800903,372.113892 220.778702,370.319702 
	C229.134949,373.283997 237.491211,376.248322 245.597717,379.822205 
	C245.444977,381.293701 245.292236,382.765228 245.139496,384.236694 
	C246.720764,384.337219 248.761734,385.094452 249.775742,384.384613 
	C251.302383,383.315918 252.110794,381.221191 254.080368,379.407043 
	C265.365265,376.501190 276.650146,373.595337 287.934998,370.689484 
	C288.203827,370.936737 288.472656,371.184021 288.741486,371.431274 
	C285.993011,373.820190 283.244507,376.209076 280.545990,378.554535 
	C284.871857,381.699707 294.797028,378.444427 295.542694,372.739166 
	C296.441498,365.861816 300.567322,361.876160 305.088470,357.658508 
	C306.869110,355.997406 308.279236,353.831329 309.444550,351.672028 
	C309.905243,350.818298 309.240387,349.357117 308.901672,346.723328 
	C302.038055,359.072876 292.715729,364.906189 280.352142,365.411316 
	C277.632843,365.522461 274.227325,364.848938 272.218475,363.211212 
	C267.060883,359.006470 262.040192,357.691864 256.191772,360.745819 
	C254.522949,361.617249 253.403259,363.540283 251.801575,365.222870 
	C261.151184,367.122711 268.866821,371.996033 277.593445,368.854523 
	C277.712311,368.811707 277.981750,369.187073 278.469727,369.628601 
	C268.476898,373.999054 258.492737,377.054565 247.551819,376.225952 
	C242.497421,375.843170 239.318924,373.982574 237.794266,368.802032 
	C236.599701,364.743195 233.585403,362.204010 227.985138,363.207611 
	C229.085037,365.963562 230.024673,368.317963 230.669434,369.933502 
	C224.122360,368.315948 217.619385,366.709259 210.479904,364.759277 
	C208.505020,363.624207 206.629929,362.238831 204.535416,361.403839 
	C199.489639,359.392426 196.549362,361.368683 195.210739,366.984589 
	C191.826492,368.614594 189.548904,367.683380 186.536606,365.167023 
	C183.150650,362.338531 177.828873,361.885468 174.284515,359.175690 
	C168.031265,354.394958 161.660645,356.242798 155.218643,357.509583 
	C154.472504,357.656372 153.346786,360.533142 153.805008,361.399658 
	C157.176407,367.774963 166.712479,369.909180 172.518402,365.857391 
	C177.483200,362.392578 182.951996,364.017151 185.962936,369.991486 
	C173.791809,374.517517 162.027603,375.310730 150.742401,366.312225 
	C148.200317,360.658783 144.641846,355.218292 143.400299,349.292358 
	C142.143906,343.295593 138.005417,336.443665 131.981216,335.183716 
	C131.064438,334.991974 129.994186,335.533966 128.465958,335.843811 
	C134.254181,345.600739 139.690598,354.764587 144.648331,364.540466 
M399.031311,188.988770 
	C399.003784,186.495483 399.334686,183.933502 398.872894,181.523438 
	C397.959137,176.754456 398.454498,172.757690 401.626556,168.641037 
	C403.706360,165.941956 404.085602,161.926590 400.117310,157.358170 
	C398.488220,161.245026 397.249756,164.199890 396.111542,166.915512 
	C391.375061,157.165863 390.856812,154.128281 392.572052,146.250763 
	C394.813782,145.281464 397.092346,144.628815 398.982605,143.385727 
	C400.886688,142.133560 402.155762,139.757233 404.148193,138.833649 
	C407.480133,137.289093 406.728180,135.393112 405.263336,133.333130 
	C403.179504,130.402695 395.933899,129.669464 391.742340,131.792084 
	C388.023071,133.675537 386.769775,137.492233 387.930054,141.914566 
	C388.612610,144.516113 388.620819,147.294586 388.932312,149.993484 
	C383.742188,143.227188 382.737274,135.872162 384.994965,128.060822 
	C386.805023,127.111801 388.900116,126.473145 390.354767,125.137177 
	C392.283997,123.365372 393.522278,120.855568 395.396729,119.006882 
	C399.297058,115.160187 399.003082,109.892624 394.686279,106.681892 
	C393.537201,105.827232 392.972321,104.210091 392.071930,102.992775 
	C390.595642,100.996727 389.374054,97.905838 387.469604,97.386414 
	C385.542847,96.860901 382.095612,98.255447 380.772308,99.948479 
	C378.179901,103.265076 375.908569,104.404648 371.639557,103.162537 
	C367.994843,102.102058 362.712585,102.295815 362.694672,107.363609 
	C362.675232,112.871872 364.054321,118.865944 366.624908,123.687904 
	C367.807678,125.906548 373.268341,125.905830 376.823914,126.768372 
	C378.255646,127.115692 379.780396,127.079521 381.138031,128.034698 
	C379.001160,138.037582 382.069427,146.909958 386.805725,155.546722 
	C389.257935,160.018433 392.093933,164.622452 393.038452,169.499435 
	C394.526947,177.185349 394.567108,185.151749 395.126740,193.799744 
	C394.386139,196.804199 393.645508,199.808655 392.904877,202.813110 
	C392.307129,202.835175 391.709381,202.857254 391.111633,202.879333 
	C389.026001,194.554657 386.940369,186.229996 384.718719,177.362488 
	C381.300079,179.931702 379.377777,183.215607 378.773438,187.233414 
	C378.136322,191.469345 378.507812,195.127487 383.765717,196.559937 
	C385.192810,196.948746 386.076996,199.330215 386.849457,201.166901 
	C386.737183,201.297516 386.624878,201.428131 385.829987,201.670273 
	C383.604034,202.135849 381.378082,202.601425 378.577545,203.187164 
	C381.730743,208.408966 385.215332,207.310623 390.187073,205.399475 
	C389.097656,209.470535 388.624207,212.647507 387.414337,215.513596 
	C382.575958,226.975037 379.593781,238.135757 388.231354,249.421448 
	C390.915253,252.928207 390.073303,257.228638 387.095428,260.639557 
	C384.135406,255.155472 381.269501,249.845703 378.270447,244.289307 
	C374.453796,248.024719 374.739288,252.294983 378.233398,255.533768 
	C384.420807,261.269012 384.420837,261.268982 378.913910,267.831360 
	C381.473267,267.452209 383.174530,267.564240 384.532684,266.935333 
	C390.124451,264.346008 393.030640,258.720215 392.796600,252.242310 
	C392.611908,247.129501 392.716827,242.252762 397.263550,238.269104 
	C401.673645,234.405167 401.006134,226.383926 397.056030,224.002823 
	C394.607727,227.090408 391.248596,229.807358 390.043518,233.273270 
	C388.835846,236.746658 389.778198,240.967590 389.778198,245.263214 
	C384.313293,237.661407 385.171783,221.949783 391.160645,215.870575 
	C392.891296,214.113800 394.517426,213.306168 397.143433,215.326218 
	C400.494568,217.904083 404.681854,218.127151 408.356995,215.650055 
	C409.728424,214.725693 411.506500,212.476074 411.180664,211.425827 
	C410.721619,209.945969 408.570709,208.221756 406.976685,208.036804 
	C404.344086,207.731308 401.560730,208.475174 398.875610,208.966537 
	C397.273987,209.259628 395.738617,209.914658 393.655853,210.569809 
	C395.244324,205.529007 396.538879,201.420837 398.523621,197.116074 
	C399.991364,196.897812 401.772430,197.125504 402.857819,196.362991 
	C404.771423,195.018570 406.554871,193.251083 407.769501,191.277115 
	C408.200928,190.576019 406.693481,187.600067 406.282532,187.643921 
	C404.148071,187.871689 402.078979,188.730270 399.995178,189.394470 
	C399.688110,189.492371 399.424133,189.725449 399.031311,188.988770 
M312.113129,45.313393 
	C313.998383,44.405567 316.139313,43.806431 317.703461,42.510921 
	C319.612122,40.930099 321.890076,38.949150 322.358734,36.784161 
	C322.653046,35.424480 319.889526,33.430061 318.548981,31.681231 
	C317.332092,30.093706 315.740417,28.612164 315.093109,26.804844 
	C313.449371,22.215597 309.261749,19.756670 305.583191,22.642849 
	C302.084137,25.388214 299.670258,24.759272 296.305389,23.084934 
	C294.913330,22.392262 292.166534,22.687309 291.045227,23.676878 
	C289.940369,24.651911 289.623871,27.134291 289.836029,28.847004 
	C290.173767,31.574112 291.236938,34.211376 291.228973,36.806335 
	C288.640686,36.200195 285.922272,35.898411 283.514771,34.869305 
	C282.155670,34.288357 280.653809,32.656815 280.338806,31.247581 
	C278.577576,23.368732 272.630493,17.827162 263.295532,16.398495 
	C264.322632,21.036739 264.152893,26.301308 266.602692,29.648849 
	C269.087006,33.043526 274.158875,34.544540 278.694183,37.228004 
	C272.514038,37.978550 266.747559,38.630558 260.996124,39.395752 
	C257.635468,39.842873 255.376129,38.891159 253.956207,35.526470 
	C252.281143,31.557177 249.267502,28.896315 244.435928,28.006367 
	C243.188477,33.363010 247.070068,35.527740 249.708099,38.771847 
	C244.061264,36.959869 238.612610,34.867481 233.729935,31.857071 
	C230.563293,29.904684 230.450562,26.521246 232.591721,23.084553 
	C234.321747,20.307711 235.859634,17.272812 236.733841,14.143191 
	C237.486069,11.450306 236.339294,9.586525 232.858459,10.584706 
	C227.221680,12.201138 223.925903,18.560665 226.057709,23.978569 
	C226.503967,25.112707 226.827667,26.295078 227.553299,28.509443 
	C220.575623,22.990526 213.765030,20.206724 206.090363,19.166653 
	C204.733109,17.429014 203.705994,14.901902 201.932297,14.160201 
	C199.869278,13.297522 197.152252,13.998837 194.719070,14.021389 
	C195.713028,15.964151 196.662796,17.931679 197.729294,19.833778 
	C198.028580,20.367577 198.671051,20.708961 198.550049,21.525879 
	C196.654556,22.368053 194.759064,23.210228 192.863571,24.052404 
	C193.067703,24.639076 193.271835,25.225748 193.475967,25.812422 
	C198.705811,24.778080 203.935654,23.743736 209.165497,22.709394 
	C209.341141,23.246386 209.516800,23.783377 209.692459,24.320366 
	C208.195236,25.128414 206.678558,25.902691 205.204803,26.751484 
	C202.059799,28.562826 198.807190,30.231916 195.871613,32.339489 
	C194.758987,33.138279 193.569519,35.261978 193.910995,36.280025 
	C194.308777,37.465961 196.240692,38.574417 197.689026,38.895912 
	C204.283356,40.359695 210.416214,36.111279 211.745514,29.429287 
	C212.736984,24.445496 213.861038,23.834478 218.313019,26.196949 
	C220.657440,27.441021 222.970169,28.821461 225.071793,30.434092 
	C239.756836,41.702290 256.031189,44.919689 274.096130,41.077431 
	C279.853729,39.852837 285.952576,40.232418 292.435150,40.338425 
	C297.281097,42.227203 302.127014,44.115982 307.457214,46.456455 
	C309.179718,48.042004 310.902222,49.627552 312.624725,51.213104 
	C312.352875,51.586742 312.080994,51.960377 311.809113,52.334015 
	C308.367065,50.540791 305.056152,47.608910 301.455292,47.194111 
	C294.216797,46.360283 289.041656,54.264645 292.571106,59.751846 
	C311.298431,51.192257 323.869080,55.362328 325.525452,70.569580 
	C322.607758,68.823242 319.842316,66.109581 315.362579,68.856094 
	C318.437195,72.921638 321.217865,76.071541 326.717926,76.009605 
	C329.170654,75.981987 331.857971,77.480362 334.067139,78.874916 
	C339.913849,82.565689 345.478180,86.705338 351.343811,90.363419 
	C352.649719,91.177856 354.731873,90.747589 356.456635,90.890404 
	C356.530914,90.446983 356.605194,90.003571 356.679474,89.560150 
	C355.740326,89.026421 354.860840,88.235985 353.852142,88.001411 
	C348.120148,86.668472 345.019623,82.721420 343.949402,77.350639 
	C343.452667,74.857979 343.391815,70.854546 344.840057,69.725746 
	C347.118652,67.949776 350.813660,67.831192 353.962402,67.412247 
	C355.177277,67.250610 356.538147,68.185776 358.067139,68.700172 
	C357.878662,62.504539 354.695129,58.880299 349.949738,58.749466 
	C345.048859,58.614346 340.439545,62.731731 340.088867,68.095299 
	C339.863434,71.543892 340.380310,75.041016 340.092377,78.927071 
	C339.942474,79.072105 339.792572,79.217140 339.021271,79.111061 
	C335.249207,74.705956 331.383728,70.376755 327.727173,65.877762 
	C322.396332,59.318718 317.215698,52.637547 312.113129,45.313393 
M127.044312,57.158970 
	C126.440262,59.157089 125.836212,61.155209 125.180794,63.323254 
	C121.711815,60.316845 122.845535,53.463791 116.113953,53.140957 
	C114.764595,58.544029 121.673759,62.808926 117.721230,69.415154 
	C116.029068,66.066566 115.131500,63.559212 113.594032,61.538803 
	C112.753380,60.434071 110.830414,60.152946 109.395515,59.500408 
	C109.358810,60.943439 109.077896,62.437248 109.363968,63.813168 
	C109.586113,64.881607 110.671959,65.739609 111.102524,66.801208 
	C112.547729,70.364548 112.655151,73.726051 109.335960,76.808800 
	C108.372772,72.781303 107.528122,69.249496 106.632507,65.504562 
	C95.557404,70.710472 94.683594,71.976097 98.774994,76.536926 
	C100.738274,74.809074 102.706207,73.077118 105.205940,70.877151 
	C105.205940,73.302650 105.062805,74.796745 105.240761,76.251572 
	C105.484291,78.242462 105.971840,80.203499 106.354797,82.177338 
	C108.300911,81.088715 110.351730,80.145187 112.147972,78.848877 
	C113.016945,78.221779 113.249977,76.772842 114.051338,75.979080 
	C115.328423,74.714104 116.839760,73.685631 117.342438,73.283974 
	C118.817734,76.285812 119.291962,79.223122 120.824066,79.959534 
	C124.061974,81.515892 127.085640,78.624466 128.670609,73.292107 
	C134.573807,73.150635 137.086716,70.938301 136.974075,66.478561 
	C136.886520,63.012177 137.294296,59.533283 137.432632,56.972122 
	C140.051132,56.500053 142.479477,56.535751 142.647720,55.936710 
	C143.038940,54.543705 142.656281,52.701202 142.019089,51.299034 
	C140.618576,48.217083 139.529938,45.326000 142.757294,41.783955 
	C143.589081,43.554203 144.050308,44.904957 144.806015,46.063652 
	C146.178085,48.167362 147.725327,50.156803 149.199463,52.193935 
	C150.854172,50.487946 152.508972,48.782043 154.163437,47.075817 
	C154.279404,46.956230 154.392990,46.834343 154.507706,46.713535 
	C154.672073,47.178329 154.836441,47.643124 155.000824,48.107918 
	C157.200150,47.330139 159.392807,46.532757 161.601303,45.781948 
	C162.919571,45.333790 164.284851,44.549187 165.590851,44.619953 
	C172.051514,44.970047 177.127960,39.221066 175.397919,33.298771 
	C170.794266,40.227314 169.942032,40.689827 164.919296,37.546791 
	C166.794693,36.210152 168.933929,35.377117 169.854706,33.822437 
	C170.672852,32.441071 170.139542,30.259298 170.202759,28.430819 
	C168.495316,28.391144 165.802963,27.661180 165.259171,28.437071 
	C163.387634,31.107376 162.115540,34.244888 160.914429,37.321278 
	C160.125397,39.342205 159.852036,41.564461 159.347748,43.696556 
	C158.990051,43.597965 158.632355,43.499371 158.274658,43.400780 
	C156.934845,39.628056 155.595016,35.855335 154.255203,32.082611 
	C153.543198,32.232502 152.831192,32.382393 152.119171,32.532284 
	C151.900146,37.282532 151.681122,42.032780 151.417175,47.757484 
	C148.739410,43.576160 147.428497,39.117229 145.013611,38.405830 
	C142.357330,37.623325 138.685532,40.288109 135.390366,41.474693 
	C135.390366,46.452293 135.390366,51.456264 135.390366,57.695705 
	C132.067490,53.032066 133.468475,46.648994 125.942650,45.710175 
	C127.049576,49.948669 127.905617,53.226505 128.271896,56.801609 
	C128.122681,56.920815 127.973473,57.040016 127.044312,57.158970 
M58.690174,170.095703 
	C59.372723,180.837799 59.472576,191.543015 57.169445,202.096222 
	C56.668522,202.217285 56.167599,202.338348 55.666679,202.459412 
	C53.455109,195.720016 51.243542,188.980606 49.007259,182.165878 
	C45.294701,184.592957 43.097847,188.568665 44.331829,192.996338 
	C45.227993,196.211899 47.340584,199.828644 50.013088,201.641479 
	C54.402767,204.619049 56.631275,207.448608 55.449703,212.387711 
	C54.291054,217.231003 52.985138,222.039062 51.101444,226.720901 
	C50.559204,226.120972 50.123455,225.321640 49.452251,224.963165 
	C48.108395,224.245407 46.635696,223.768860 45.216187,223.192734 
	C44.901054,224.842926 43.795891,226.955643 44.434944,228.047195 
	C45.773090,230.332764 48.029991,232.080414 49.884449,234.846909 
	C49.362492,238.131470 48.706543,241.401184 48.340672,244.703033 
	C46.220207,263.839264 56.770283,276.671356 75.546745,278.053253 
	C76.718628,278.139496 78.577606,279.101471 78.803902,279.990295 
	C79.620514,283.197662 79.875084,286.548187 80.481674,290.831726 
	C72.467049,286.325439 63.079037,287.195587 58.821007,278.084534 
	C58.034744,280.945496 57.742153,283.062836 57.697075,285.185425 
	C57.547237,292.241241 63.740295,296.443726 70.289909,293.790192 
	C76.909523,291.108337 79.524292,292.348053 82.237633,299.187683 
	C87.090187,311.419678 96.119637,318.861877 108.863571,321.723419 
	C111.206406,322.249481 113.768623,321.798492 116.229576,321.798492 
	C116.291176,321.202179 116.352783,320.605865 116.414383,320.009552 
	C115.038193,319.653015 113.680573,319.108643 112.282791,318.970520 
	C103.206497,318.073486 99.771164,313.948090 100.752831,304.981750 
	C101.191872,300.971649 98.497917,296.626770 94.693619,295.463837 
	C91.231583,301.394592 93.421257,306.599060 96.933372,311.942627 
	C95.067017,311.430267 93.791260,310.623047 92.700600,309.615448 
	C85.578682,303.036163 83.948708,294.303345 82.955544,285.209900 
	C81.503281,271.912933 75.292351,260.882935 66.341660,250.930359 
	C63.122044,256.809326 64.258423,263.483276 69.060852,264.875244 
	C74.140068,266.347473 75.234573,270.209717 77.445480,274.922211 
	C73.797134,274.625305 70.862000,274.629822 68.024330,274.106171 
	C61.609169,272.922211 56.466698,269.045715 55.270061,262.930664 
	C53.988876,256.383514 54.319736,249.338486 61.120152,244.675171 
	C66.352623,241.087036 69.855415,229.588150 67.874382,223.867905 
	C67.633301,223.171799 67.033241,222.272629 66.434898,222.122131 
	C65.866806,221.979218 64.737885,222.513123 64.447845,223.062225 
	C62.052273,227.597549 59.483002,232.080948 57.582436,236.826797 
	C55.673054,241.594635 54.471230,246.645828 52.959335,251.572830 
	C52.292198,251.443985 51.625065,251.315125 50.957928,251.186264 
	C51.789116,245.285538 52.027344,239.226028 53.557396,233.512451 
	C59.222408,212.357910 63.817657,191.123077 62.657413,169.059708 
	C65.354263,167.531021 68.692825,166.497162 70.437721,164.234390 
	C71.153465,163.306229 68.430130,159.726059 66.807602,156.402679 
	C66.476128,157.120193 66.763397,156.539536 67.016388,155.944321 
	C69.393196,150.352341 68.424164,148.804077 62.432640,147.844116 
	C61.271893,147.658157 60.118263,146.433151 59.277504,145.424011 
	C56.305271,141.856552 52.018772,142.420761 50.286873,146.773300 
	C49.766315,148.081543 49.581806,149.523499 49.243347,150.904205 
	C48.958878,150.569183 48.674404,150.234146 48.389935,149.899124 
	C45.950607,151.083633 41.307438,152.703445 41.441025,153.379761 
	C42.140968,156.923401 44.051189,160.227982 45.540806,163.615646 
	C46.446144,166.056335 46.444965,169.486343 48.157364,171.117905 
	C50.778690,173.615509 54.023712,171.876144 56.660328,169.773804 
	C57.129417,169.399750 57.883110,169.382645 58.690174,170.095703 
M365.606415,266.695679 
	C367.086945,255.853088 369.275055,245.050171 369.885773,234.158813 
	C370.855225,216.870712 370.928497,199.602676 375.523499,182.652481 
	C377.076111,176.925095 377.268433,170.303970 376.140320,164.466614 
	C371.511597,140.515488 360.073212,119.807388 343.903046,101.706482 
	C335.906738,92.755386 327.793610,83.771774 315.651215,80.242195 
	C305.859680,77.395950 297.643433,72.067772 289.815125,65.590042 
	C284.660278,61.324497 278.687592,57.333145 272.407349,55.265194 
	C245.048996,46.256668 217.075226,46.083260 189.019928,51.647018 
	C171.243652,55.172310 155.411865,62.177704 144.677078,77.887848 
	C137.001846,89.120399 126.244408,96.791870 114.763512,103.875351 
	C107.949699,108.079346 100.436897,113.028152 96.422348,119.590027 
	C68.042305,165.977875 62.832905,214.775681 85.295357,264.994843 
	C93.074226,282.386017 103.916878,298.193756 121.787094,307.403320 
	C131.914246,312.622467 139.835358,320.314117 146.888138,329.132538 
	C153.086395,336.882507 160.486786,343.025726 169.856659,347.051514 
	C193.870850,357.369232 218.935379,359.007782 244.386017,356.342377 
	C268.581146,353.808502 291.023163,345.767975 311.815857,332.199738 
	C314.472626,335.128723 317.004883,338.184326 319.819580,340.952698 
	C322.908478,343.990784 326.181824,343.720825 329.668640,341.194946 
	C349.054840,327.151611 364.900482,309.941742 376.848114,289.153809 
	C378.663544,285.995117 378.705597,283.490143 376.139465,280.644348 
	C372.284027,276.368835 368.790344,271.767151 365.606415,266.695679 
M88.136284,83.561867 
	C89.295898,87.216843 90.455513,90.871811 91.615135,94.526787 
	C89.706993,93.992432 88.745277,92.951469 87.784355,91.909798 
	C83.716011,87.499626 81.178131,87.855507 78.285400,93.022812 
	C77.593376,94.259003 76.246651,95.128685 74.931656,96.434410 
	C77.175117,100.594368 79.530052,104.961006 81.884987,109.327644 
	C81.280556,109.745316 80.676132,110.162987 80.071709,110.580658 
	C78.438095,109.086510 76.944649,107.384438 75.128952,106.160385 
	C73.516769,105.073509 71.546944,104.517151 69.734978,103.726624 
	C69.264954,104.480423 68.794930,105.234222 68.324913,105.988029 
	C71.454567,108.675163 74.321144,111.786507 77.785027,113.934746 
	C81.538162,116.262337 83.499886,114.968765 84.370773,110.600945 
	C84.543953,109.732422 84.586739,108.519508 85.156815,108.099548 
	C89.251480,105.083061 89.253235,105.184975 84.993362,102.070625 
	C82.259567,100.071968 80.657021,97.584312 81.892113,93.049500 
	C84.601868,95.572983 86.365334,97.514313 88.425545,99.060158 
	C91.167793,101.117767 93.150826,100.790131 94.240692,97.006516 
	C94.673767,95.503021 96.213959,93.938828 97.658669,93.174095 
	C103.013680,90.339539 104.822372,83.776047 101.250092,79.172607 
	C99.668076,87.082893 99.428391,87.410576 94.775734,87.482994 
	C95.245346,85.511971 96.144119,83.599701 96.008919,81.763565 
	C95.883522,80.060463 94.653671,78.438667 93.910133,76.781082 
	C92.305504,77.668800 90.517883,78.347504 89.169540,79.527946 
	C88.440048,80.166611 88.460304,81.661659 88.136284,83.561867 
M54.961735,112.573914 
	C51.844414,120.778114 52.184818,123.467453 56.344116,124.636818 
	C56.468983,122.589890 56.596508,120.499428 56.724033,118.408958 
	C57.268040,118.294640 57.812050,118.180313 58.356056,118.065994 
	C59.881363,121.269630 61.406670,124.473274 63.299431,128.448700 
	C63.724403,127.415565 64.149826,126.381332 64.455948,125.637115 
	C67.918472,127.811745 70.766022,129.600143 73.603127,131.381973 
	C76.447960,127.663780 74.761940,126.187775 72.166870,124.526375 
	C68.960632,122.473701 64.793793,120.468582 68.747787,115.420601 
	C69.175339,114.874763 68.157951,113.197136 67.550270,111.179443 
	C65.800743,113.815308 64.733292,115.423538 63.538334,117.223877 
	C62.020180,115.814079 60.705574,114.593307 59.444130,113.421898 
	C62.930035,104.784096 62.930035,104.784096 60.354214,102.770195 
	C58.655922,105.837669 56.981781,108.861519 54.961735,112.573914 
M126.448112,43.216080 
	C127.077194,42.340393 128.192642,41.482872 128.226181,40.584942 
	C128.282410,39.079124 127.815018,37.467758 127.155594,36.099556 
	C127.035248,35.849846 124.144737,36.266098 123.935303,36.865177 
	C123.472855,38.187981 123.737915,39.858006 124.045006,41.314953 
	C124.183647,41.972744 125.131523,42.459972 126.448112,43.216080 
M152.486282,29.501799 
	C156.172943,25.806791 155.699005,24.019596 148.857101,21.901997 
	C150.141876,25.078285 150.990295,27.175802 152.486282,29.501799 
z"/>
<path fill="#795539" opacity="1.000000" stroke="none" 
	d="
M311.225189,331.943665 
	C291.023163,345.767975 268.581146,353.808502 244.386017,356.342377 
	C218.935379,359.007782 193.870850,357.369232 169.856659,347.051514 
	C160.486786,343.025726 153.086395,336.882507 146.888138,329.132538 
	C139.835358,320.314117 131.914246,312.622467 121.787094,307.403320 
	C103.916878,298.193756 93.074226,282.386017 85.295357,264.994843 
	C62.832905,214.775681 68.042305,165.977875 96.422348,119.590027 
	C100.436897,113.028152 107.949699,108.079346 114.763512,103.875351 
	C126.244408,96.791870 137.001846,89.120399 144.677078,77.887848 
	C155.411865,62.177704 171.243652,55.172310 189.019928,51.647018 
	C217.075226,46.083260 245.048996,46.256668 272.407349,55.265194 
	C278.687592,57.333145 284.660278,61.324497 289.815125,65.590042 
	C297.643433,72.067772 305.859680,77.395950 315.651215,80.242195 
	C327.793610,83.771774 335.906738,92.755386 343.903046,101.706482 
	C360.073212,119.807388 371.511597,140.515488 376.140320,164.466614 
	C377.268433,170.303970 377.076111,176.925095 375.523499,182.652481 
	C370.928497,199.602676 370.855225,216.870712 369.885773,234.158813 
	C369.275055,245.050171 367.086945,255.853088 365.029785,266.897705 
	C362.316040,265.063538 360.178986,263.027374 358.355927,260.801300 
	C359.444977,258.130096 360.740204,255.683304 360.907532,253.161667 
	C361.763977,240.256592 362.252991,227.327591 363.034027,214.416855 
	C363.353424,209.137222 363.828217,203.840164 364.689941,198.626663 
	C365.903473,191.284332 368.120392,184.071442 368.874390,176.697479 
	C370.264343,163.104019 365.294006,150.556808 359.169067,139.079834 
	C352.741241,127.035286 344.566772,115.794495 336.165710,104.970825 
	C329.086823,95.850609 320.012939,88.827957 308.408478,85.541862 
	C300.511322,83.305580 293.921814,78.639580 287.515930,73.378540 
	C281.976318,68.828957 275.590240,64.550629 268.859802,62.346615 
	C244.398010,54.336136 219.296555,54.163242 194.075409,58.472775 
	C174.533249,61.811939 157.806183,69.688751 146.452148,86.929199 
	C140.280273,96.300842 131.234512,102.552185 121.455566,107.819672 
	C110.139030,113.915398 101.248947,122.465881 96.295052,134.505234 
	C92.077866,144.754150 87.595863,154.970856 84.432022,165.560638 
	C77.556572,188.573608 77.699402,211.992889 82.682419,235.371628 
	C86.013954,251.002167 92.549408,265.310211 101.674438,278.431854 
	C108.374176,288.065918 115.920837,296.717072 126.798828,301.975861 
	C136.395889,306.615326 144.210144,313.625275 150.412842,322.192535 
	C157.987640,332.654846 168.320297,338.921478 180.241714,342.829681 
	C202.543762,350.140991 225.330048,351.672272 248.504196,347.993866 
	C263.692291,345.583069 278.249176,341.268066 291.888397,334.074829 
	C297.580994,331.072601 303.238678,328.004272 309.075104,325.294647 
	C309.900391,327.730072 310.562805,329.836884 311.225189,331.943665 
z"/>
<path fill="#3C7555" opacity="1.000000" stroke="none" 
	d="
M311.520508,332.071716 
	C310.562805,329.836884 309.900391,327.730072 309.050140,324.908630 
	C308.564209,322.121582 308.266113,320.049225 308.124817,317.634583 
	C310.215912,306.926544 315.117035,298.588837 324.051788,292.542633 
	C327.973907,289.888489 331.360657,286.338074 334.640289,282.863983 
	C339.682892,277.522461 339.527344,270.431671 334.506134,265.049988 
	C332.478394,262.876678 330.256897,260.884125 328.037842,258.475403 
	C326.973450,256.055328 325.994781,253.969116 325.019104,251.452209 
	C325.121063,249.206909 325.170990,247.388062 325.327759,245.578461 
	C325.920319,238.738342 326.464417,231.892319 327.194763,225.066498 
	C327.593903,221.336319 328.330109,217.642197 329.302795,213.935745 
	C331.351379,214.415085 333.011505,214.890518 334.696045,215.739838 
	C339.427673,229.938873 344.584198,243.541153 354.144287,255.328247 
	C355.524750,257.421936 356.783325,259.206543 358.041901,260.991180 
	C360.178986,263.027374 362.316040,265.063538 364.797974,267.201935 
	C368.790344,271.767151 372.284027,276.368835 376.139465,280.644348 
	C378.705597,283.490143 378.663544,285.995117 376.848114,289.153809 
	C364.900482,309.941742 349.054840,327.151611 329.668640,341.194946 
	C326.181824,343.720825 322.908478,343.990784 319.819580,340.952698 
	C317.004883,338.184326 314.472626,335.128723 311.520508,332.071716 
z"/>
<path fill="#497F61" opacity="1.000000" stroke="none" 
	d="
M51.743851,226.862595 
	C52.985138,222.039062 54.291054,217.231003 55.449703,212.387711 
	C56.631275,207.448608 54.402767,204.619049 50.013088,201.641479 
	C47.340584,199.828644 45.227993,196.211899 44.331829,192.996338 
	C43.097847,188.568665 45.294701,184.592957 49.007259,182.165878 
	C51.243542,188.980606 53.455109,195.720016 55.666679,202.459412 
	C56.167599,202.338348 56.668522,202.217285 57.169445,202.096222 
	C59.472576,191.543015 59.372723,180.837799 58.812958,169.419617 
	C59.901058,168.832581 60.866375,168.921661 61.831696,169.010742 
	C63.817657,191.123077 59.222408,212.357910 53.557396,233.512451 
	C52.027344,239.226028 51.789116,245.285538 50.957928,251.186264 
	C51.625065,251.315125 52.292198,251.443985 52.959335,251.572830 
	C54.471230,246.645828 55.673054,241.594635 57.582436,236.826797 
	C59.483002,232.080948 62.052273,227.597549 64.447845,223.062225 
	C64.737885,222.513123 65.866806,221.979218 66.434898,222.122131 
	C67.033241,222.272629 67.633301,223.171799 67.874382,223.867905 
	C69.855415,229.588150 66.352623,241.087036 61.120152,244.675171 
	C54.319736,249.338486 53.988876,256.383514 55.270061,262.930664 
	C56.466698,269.045715 61.609169,272.922211 68.024330,274.106171 
	C70.862000,274.629822 73.797134,274.625305 77.445480,274.922211 
	C75.234573,270.209717 74.140068,266.347473 69.060852,264.875244 
	C64.258423,263.483276 63.122044,256.809326 66.341660,250.930359 
	C75.292351,260.882935 81.503281,271.912933 82.955544,285.209900 
	C83.948708,294.303345 85.578682,303.036163 92.700600,309.615448 
	C93.791260,310.623047 95.067017,311.430267 96.933372,311.942627 
	C93.421257,306.599060 91.231583,301.394592 94.693619,295.463837 
	C98.497917,296.626770 101.191872,300.971649 100.752831,304.981750 
	C99.771164,313.948090 103.206497,318.073486 112.282791,318.970520 
	C113.680573,319.108643 115.038193,319.653015 116.414383,320.009552 
	C116.352783,320.605865 116.291176,321.202179 116.229576,321.798492 
	C113.768623,321.798492 111.206406,322.249481 108.863571,321.723419 
	C96.119637,318.861877 87.090187,311.419678 82.237633,299.187683 
	C79.524292,292.348053 76.909523,291.108337 70.289909,293.790192 
	C63.740295,296.443726 57.547237,292.241241 57.697075,285.185425 
	C57.742153,283.062836 58.034744,280.945496 58.821007,278.084534 
	C63.079037,287.195587 72.467049,286.325439 80.481674,290.831726 
	C79.875084,286.548187 79.620514,283.197662 78.803902,279.990295 
	C78.577606,279.101471 76.718628,278.139496 75.546745,278.053253 
	C56.770283,276.671356 46.220207,263.839264 48.340672,244.703033 
	C48.706543,241.401184 49.362492,238.131470 50.166237,234.169189 
	C50.879967,231.281845 51.311909,229.072220 51.743851,226.862595 
z"/>
<path fill="#171718" opacity="1.000000" stroke="none" 
	d="
M128.761658,56.504337 
	C127.905617,53.226505 127.049576,49.948669 125.942650,45.710175 
	C133.468475,46.648994 132.067490,53.032066 135.390366,57.695705 
	C135.390366,51.456264 135.390366,46.452293 135.390366,41.474693 
	C138.685532,40.288109 142.357330,37.623325 145.013611,38.405830 
	C147.428497,39.117229 148.739410,43.576160 151.417175,47.757484 
	C151.681122,42.032780 151.900146,37.282532 152.119171,32.532284 
	C152.831192,32.382393 153.543198,32.232502 154.255203,32.082611 
	C155.595016,35.855335 156.934845,39.628056 158.274658,43.400780 
	C158.632355,43.499371 158.990051,43.597965 159.347748,43.696556 
	C159.852036,41.564461 160.125397,39.342205 160.914429,37.321278 
	C162.115540,34.244888 163.387634,31.107376 165.259171,28.437071 
	C165.802963,27.661180 168.495316,28.391144 170.202759,28.430819 
	C170.139542,30.259298 170.672852,32.441071 169.854706,33.822437 
	C168.933929,35.377117 166.794693,36.210152 164.919296,37.546791 
	C169.942032,40.689827 170.794266,40.227314 175.397919,33.298771 
	C177.127960,39.221066 172.051514,44.970047 165.590851,44.619953 
	C164.284851,44.549187 162.919571,45.333790 161.601303,45.781948 
	C159.392807,46.532757 157.200150,47.330139 155.000824,48.107918 
	C154.836441,47.643124 154.672073,47.178329 154.507706,46.713535 
	C154.392990,46.834343 154.279404,46.956230 154.163437,47.075817 
	C152.508972,48.782043 150.854172,50.487946 149.199463,52.193939 
	C147.725327,50.156803 146.178085,48.167362 144.806015,46.063652 
	C144.050308,44.904957 143.589081,43.554203 142.757294,41.783955 
	C139.529938,45.326000 140.618576,48.217083 142.019089,51.299034 
	C142.656281,52.701202 143.038940,54.543705 142.647720,55.936710 
	C142.479477,56.535751 140.051132,56.500053 137.432632,56.972122 
	C137.294296,59.533283 136.886520,63.012177 136.974075,66.478561 
	C137.086716,70.938301 134.573807,73.150635 128.670609,73.292107 
	C127.085640,78.624466 124.061974,81.515892 120.824066,79.959534 
	C119.291962,79.223122 118.817734,76.285812 117.342438,73.283974 
	C116.839760,73.685631 115.328423,74.714104 114.051338,75.979080 
	C113.249977,76.772842 113.016945,78.221779 112.147972,78.848877 
	C110.351730,80.145187 108.300911,81.088715 106.354797,82.177338 
	C105.971840,80.203499 105.484291,78.242462 105.240761,76.251572 
	C105.062805,74.796745 105.205940,73.302650 105.205940,70.877151 
	C102.706207,73.077118 100.738274,74.809074 98.774994,76.536926 
	C94.683594,71.976097 95.557404,70.710472 106.632507,65.504562 
	C107.528122,69.249496 108.372772,72.781303 109.335960,76.808800 
	C112.655151,73.726051 112.547729,70.364548 111.102524,66.801208 
	C110.671959,65.739609 109.586113,64.881607 109.363968,63.813168 
	C109.077896,62.437248 109.358810,60.943439 109.395515,59.500412 
	C110.830414,60.152946 112.753380,60.434071 113.594032,61.538803 
	C115.131500,63.559212 116.029068,66.066566 117.721230,69.415154 
	C121.673759,62.808926 114.764595,58.544029 116.113953,53.140957 
	C122.845535,53.463791 121.711815,60.316845 125.180794,63.323254 
	C125.836212,61.155209 126.440262,59.157089 127.476234,57.490284 
	C128.271103,58.060902 128.634033,58.300205 128.996979,58.539509 
	C128.918533,57.861118 128.840088,57.182728 128.761658,56.504337 
z"/>
<path fill="#477E60" opacity="1.000000" stroke="none" 
	d="
M291.895264,39.877972 
	C285.952576,40.232418 279.853729,39.852837 274.096130,41.077431 
	C256.031189,44.919689 239.756836,41.702290 225.071793,30.434092 
	C222.970169,28.821461 220.657440,27.441021 218.313019,26.196949 
	C213.861038,23.834478 212.736984,24.445496 211.745514,29.429287 
	C210.416214,36.111279 204.283356,40.359695 197.689026,38.895912 
	C196.240692,38.574417 194.308777,37.465961 193.910995,36.280025 
	C193.569519,35.261978 194.758987,33.138279 195.871613,32.339489 
	C198.807190,30.231916 202.059799,28.562826 205.204803,26.751484 
	C206.678558,25.902691 208.195236,25.128414 209.692459,24.320366 
	C209.516800,23.783377 209.341141,23.246386 209.165497,22.709394 
	C203.935654,23.743736 198.705811,24.778080 193.475967,25.812422 
	C193.271835,25.225748 193.067703,24.639076 192.863571,24.052404 
	C194.759064,23.210228 196.654556,22.368053 199.265503,21.347359 
	C201.997208,20.744997 204.013458,20.321156 206.029694,19.897312 
	C213.765030,20.206724 220.575623,22.990526 227.553299,28.509443 
	C226.827667,26.295078 226.503967,25.112707 226.057709,23.978569 
	C223.925903,18.560665 227.221680,12.201138 232.858459,10.584706 
	C236.339294,9.586525 237.486069,11.450306 236.733841,14.143191 
	C235.859634,17.272812 234.321747,20.307711 232.591721,23.084553 
	C230.450562,26.521246 230.563293,29.904684 233.729935,31.857071 
	C238.612610,34.867481 244.061264,36.959869 249.708099,38.771847 
	C247.070068,35.527740 243.188477,33.363010 244.435928,28.006367 
	C249.267502,28.896315 252.281143,31.557177 253.956207,35.526470 
	C255.376129,38.891159 257.635468,39.842873 260.996124,39.395752 
	C266.747559,38.630558 272.514038,37.978550 278.694183,37.228004 
	C274.158875,34.544540 269.087006,33.043526 266.602692,29.648849 
	C264.152893,26.301308 264.322632,21.036739 263.295532,16.398495 
	C272.630493,17.827162 278.577576,23.368732 280.338806,31.247581 
	C280.653809,32.656815 282.155670,34.288357 283.514771,34.869305 
	C285.922272,35.898411 288.640686,36.200195 291.613770,37.221069 
	C291.964142,38.383194 291.929718,39.130581 291.895264,39.877972 
z"/>
<path fill="#487E61" opacity="1.000000" stroke="none" 
	d="
M397.833435,197.312668 
	C396.538879,201.420837 395.244324,205.529007 393.655853,210.569809 
	C395.738617,209.914658 397.273987,209.259628 398.875610,208.966537 
	C401.560730,208.475174 404.344086,207.731308 406.976685,208.036804 
	C408.570709,208.221756 410.721619,209.945969 411.180664,211.425827 
	C411.506500,212.476074 409.728424,214.725693 408.356995,215.650055 
	C404.681854,218.127151 400.494568,217.904083 397.143433,215.326218 
	C394.517426,213.306168 392.891296,214.113800 391.160645,215.870575 
	C385.171783,221.949783 384.313293,237.661407 389.778198,245.263214 
	C389.778198,240.967590 388.835846,236.746658 390.043518,233.273270 
	C391.248596,229.807358 394.607727,227.090408 397.056030,224.002823 
	C401.006134,226.383926 401.673645,234.405167 397.263550,238.269104 
	C392.716827,242.252762 392.611908,247.129501 392.796600,252.242310 
	C393.030640,258.720215 390.124451,264.346008 384.532684,266.935333 
	C383.174530,267.564240 381.473267,267.452209 378.913910,267.831360 
	C384.420837,261.268982 384.420807,261.269012 378.233398,255.533768 
	C374.739288,252.294983 374.453796,248.024719 378.270447,244.289307 
	C381.269501,249.845703 384.135406,255.155472 387.095428,260.639557 
	C390.073303,257.228638 390.915253,252.928207 388.231354,249.421448 
	C379.593781,238.135757 382.575958,226.975037 387.414337,215.513596 
	C388.624207,212.647507 389.097656,209.470535 390.187073,205.399475 
	C385.215332,207.310623 381.730743,208.408966 378.577545,203.187164 
	C381.378082,202.601425 383.604034,202.135849 386.380188,201.719482 
	C387.023712,201.444839 387.117035,201.120972 387.210358,200.797119 
	C386.076996,199.330215 385.192810,196.948746 383.765717,196.559937 
	C378.507812,195.127487 378.136322,191.469345 378.773438,187.233414 
	C379.377777,183.215607 381.300079,179.931702 384.718719,177.362488 
	C386.940369,186.229996 389.026001,194.554657 391.111633,202.879333 
	C391.709381,202.857254 392.307129,202.835175 392.904877,202.813110 
	C393.645508,199.808655 394.386139,196.804199 395.440460,193.398560 
	C396.110046,192.995926 396.465881,192.994492 396.803650,193.453583 
	C397.134827,195.046967 397.484131,196.179810 397.833435,197.312668 
z"/>
<path fill="#487F61" opacity="1.000000" stroke="none" 
	d="
M245.847458,379.212616 
	C237.491211,376.248322 229.134949,373.283997 220.413055,370.605835 
	C220.047424,370.891968 220.104095,370.962616 220.209229,370.618835 
	C219.879181,370.086273 219.444000,369.897491 218.759155,369.467712 
	C216.045120,367.851990 213.580765,366.477295 211.116425,365.102600 
	C217.619385,366.709259 224.122360,368.315948 230.669434,369.933502 
	C230.024673,368.317963 229.085037,365.963562 227.985138,363.207611 
	C233.585403,362.204010 236.599701,364.743195 237.794266,368.802032 
	C239.318924,373.982574 242.497421,375.843170 247.551819,376.225952 
	C258.492737,377.054565 268.476898,373.999054 278.469727,369.628601 
	C277.981750,369.187073 277.712311,368.811707 277.593445,368.854523 
	C268.866821,371.996033 261.151184,367.122711 251.801575,365.222870 
	C253.403259,363.540283 254.522949,361.617249 256.191772,360.745819 
	C262.040192,357.691864 267.060883,359.006470 272.218475,363.211212 
	C274.227325,364.848938 277.632843,365.522461 280.352142,365.411316 
	C292.715729,364.906189 302.038055,359.072876 308.901672,346.723328 
	C309.240387,349.357117 309.905243,350.818298 309.444550,351.672028 
	C308.279236,353.831329 306.869110,355.997406 305.088470,357.658508 
	C300.567322,361.876160 296.441498,365.861816 295.542694,372.739166 
	C294.797028,378.444427 284.871857,381.699707 280.545990,378.554535 
	C283.244507,376.209076 285.993011,373.820190 288.741486,371.431274 
	C288.472656,371.184021 288.203827,370.936737 287.934998,370.689484 
	C276.650146,373.595337 265.365265,376.501190 253.359497,379.206818 
	C250.374908,379.075256 248.111191,379.143921 245.847458,379.212616 
z"/>
<path fill="#A6CFC7" opacity="1.000000" stroke="none" 
	d="
M381.262817,127.217880 
	C379.780396,127.079521 378.255646,127.115692 376.823914,126.768372 
	C373.268341,125.905830 367.807678,125.906548 366.624908,123.687904 
	C364.054321,118.865944 362.675232,112.871872 362.694672,107.363609 
	C362.712585,102.295815 367.994843,102.102058 371.639557,103.162537 
	C375.908569,104.404648 378.179901,103.265076 380.772308,99.948479 
	C382.095612,98.255447 385.542847,96.860901 387.469604,97.386414 
	C389.374054,97.905838 390.595642,100.996727 392.071930,102.992775 
	C392.972321,104.210091 393.537201,105.827232 394.686279,106.681892 
	C399.003082,109.892624 399.297058,115.160187 395.396729,119.006882 
	C393.522278,120.855568 392.283997,123.365372 390.354767,125.137177 
	C388.900116,126.473145 386.805023,127.111801 384.370117,127.858002 
	C382.917816,127.509407 382.090302,127.363640 381.262817,127.217880 
M378.740417,109.921402 
	C375.770172,110.055252 373.724640,111.588135 374.319244,114.543144 
	C374.594574,115.911339 377.128632,118.052383 378.085358,117.794029 
	C379.931580,117.295486 382.065735,115.644691 382.833954,113.917221 
	C383.864563,111.599960 382.531555,109.751343 378.740417,109.921402 
z"/>
<path fill="#467D5F" opacity="1.000000" stroke="none" 
	d="
M340.564453,78.516388 
	C340.380310,75.041016 339.863434,71.543892 340.088867,68.095299 
	C340.439545,62.731731 345.048859,58.614346 349.949738,58.749466 
	C354.695129,58.880299 357.878662,62.504539 358.067139,68.700172 
	C356.538147,68.185776 355.177277,67.250610 353.962402,67.412247 
	C350.813660,67.831192 347.118652,67.949776 344.840057,69.725746 
	C343.391815,70.854546 343.452667,74.857979 343.949402,77.350639 
	C345.019623,82.721420 348.120148,86.668472 353.852142,88.001411 
	C354.860840,88.235985 355.740326,89.026421 356.679474,89.560150 
	C356.605194,90.003571 356.530914,90.446983 356.456635,90.890404 
	C354.731873,90.747589 352.649719,91.177856 351.343811,90.363419 
	C345.478180,86.705338 339.913849,82.565689 334.067139,78.874916 
	C331.857971,77.480362 329.170654,75.981987 326.717926,76.009605 
	C321.217865,76.071541 318.437195,72.921638 315.362579,68.856094 
	C319.842316,66.109581 322.607758,68.823242 325.525452,70.569580 
	C323.869080,55.362328 311.298431,51.192257 292.571106,59.751846 
	C289.041656,54.264645 294.216797,46.360283 301.455292,47.194111 
	C305.056152,47.608910 308.367065,50.540791 311.809113,52.334015 
	C312.080994,51.960377 312.352875,51.586742 312.624725,51.213104 
	C310.902222,49.627552 309.179718,48.042004 307.432495,45.964043 
	C308.928894,45.650570 310.449951,45.829506 311.971039,46.008446 
	C317.215698,52.637547 322.396332,59.318718 327.727173,65.877762 
	C331.383728,70.376755 335.249207,74.705956 339.510193,79.444473 
	C340.187531,79.357391 340.376007,78.936890 340.564453,78.516388 
z"/>
<path fill="#477E60" opacity="1.000000" stroke="none" 
	d="
M381.200439,127.626282 
	C382.090302,127.363640 382.917816,127.509407 383.989471,127.875015 
	C382.737274,135.872162 383.742188,143.227188 388.932312,149.993484 
	C388.620819,147.294586 388.612610,144.516113 387.930054,141.914566 
	C386.769775,137.492233 388.023071,133.675537 391.742340,131.792084 
	C395.933899,129.669464 403.179504,130.402695 405.263336,133.333130 
	C406.728180,135.393112 407.480133,137.289093 404.148193,138.833649 
	C402.155762,139.757233 400.886688,142.133560 398.982605,143.385727 
	C397.092346,144.628815 394.813782,145.281464 392.572052,146.250763 
	C390.856812,154.128281 391.375061,157.165863 396.111542,166.915512 
	C397.249756,164.199890 398.488220,161.245026 400.117310,157.358170 
	C404.085602,161.926590 403.706360,165.941956 401.626556,168.641037 
	C398.454498,172.757690 397.959137,176.754456 398.872894,181.523438 
	C399.334686,183.933502 399.003784,186.495483 398.904846,189.709030 
	C398.126190,191.283875 397.473969,192.138458 396.821747,192.993042 
	C396.465881,192.994492 396.110046,192.995926 395.487305,192.998383 
	C394.567108,185.151749 394.526947,177.185349 393.038452,169.499435 
	C392.093933,164.622452 389.257935,160.018433 386.805725,155.546722 
	C382.069427,146.909958 379.001160,138.037582 381.200439,127.626282 
z"/>
<path fill="#A7CFC8" opacity="1.000000" stroke="none" 
	d="
M312.042084,45.660919 
	C310.449951,45.829506 308.928894,45.650570 307.190369,45.738197 
	C302.127014,44.115982 297.281097,42.227203 292.165222,40.108200 
	C291.929718,39.130581 291.964142,38.383194 291.995941,37.261223 
	C291.236938,34.211376 290.173767,31.574112 289.836029,28.847004 
	C289.623871,27.134291 289.940369,24.651911 291.045227,23.676878 
	C292.166534,22.687309 294.913330,22.392262 296.305389,23.084934 
	C299.670258,24.759272 302.084137,25.388214 305.583191,22.642849 
	C309.261749,19.756670 313.449371,22.215597 315.093109,26.804844 
	C315.740417,28.612164 317.332092,30.093706 318.548981,31.681231 
	C319.889526,33.430061 322.653046,35.424480 322.358734,36.784161 
	C321.890076,38.949150 319.612122,40.930099 317.703461,42.510921 
	C316.139313,43.806431 313.998383,44.405567 312.042084,45.660919 
M301.783508,30.860657 
	C301.609314,32.097664 301.435150,33.334671 301.260956,34.571678 
	C304.061768,34.767197 306.862610,34.962715 310.769043,35.235416 
	C308.483826,29.944874 305.840668,29.305752 301.783508,30.860657 
z"/>
<path fill="#A6CFC7" opacity="1.000000" stroke="none" 
	d="
M210.798157,364.930939 
	C213.580765,366.477295 216.045120,367.851990 218.848480,369.754791 
	C219.493042,370.509460 219.798569,370.736023 220.104095,370.962616 
	C220.104095,370.962616 220.047424,370.891968 220.076752,370.858032 
	C220.800903,372.113892 221.421188,373.451019 222.203568,374.685333 
	C225.480026,379.854462 224.662704,382.440857 218.932098,384.978455 
	C218.219345,385.294067 217.504807,385.722076 216.950760,386.261902 
	C210.599457,392.450439 209.044144,392.266846 204.551773,384.719452 
	C204.242142,384.639526 203.913589,384.460388 203.622543,384.508453 
	C200.376999,385.044586 196.635132,386.342957 194.662415,382.702393 
	C192.805954,379.276428 193.470139,375.677368 196.544754,372.776367 
	C197.096298,372.255951 197.069519,371.122620 197.038544,369.744629 
	C196.507965,368.440247 196.248596,367.663544 195.989212,366.886841 
	C196.549362,361.368683 199.489639,359.392426 204.535416,361.403839 
	C206.629929,362.238831 208.505020,363.624207 210.798157,364.930939 
M205.372681,372.816559 
	C202.668793,373.334015 201.459518,374.741547 203.229355,377.246063 
	C205.339233,380.231781 207.924225,382.172913 212.346497,379.349030 
	C209.254562,377.505920 211.542023,371.866180 205.372681,372.816559 
z"/>
<path fill="#A7CFC8" opacity="1.000000" stroke="none" 
	d="
M62.244553,169.035217 
	C60.866375,168.921661 59.901058,168.832581 58.720562,168.972107 
	C57.883110,169.382645 57.129417,169.399750 56.660328,169.773804 
	C54.023712,171.876144 50.778690,173.615509 48.157364,171.117905 
	C46.444965,169.486343 46.446144,166.056335 45.540806,163.615646 
	C44.051189,160.227982 42.140968,156.923401 41.441025,153.379761 
	C41.307438,152.703445 45.950607,151.083633 48.389935,149.899124 
	C48.674404,150.234146 48.958878,150.569183 49.243347,150.904205 
	C49.581806,149.523499 49.766315,148.081543 50.286873,146.773300 
	C52.018772,142.420761 56.305271,141.856552 59.277504,145.424011 
	C60.118263,146.433151 61.271893,147.658157 62.432640,147.844116 
	C68.424164,148.804077 69.393196,150.352341 67.016388,155.944321 
	C66.763397,156.539536 66.476128,157.120193 66.807602,156.402679 
	C68.430130,159.726059 71.153465,163.306229 70.437721,164.234390 
	C68.692825,166.497162 65.354263,167.531021 62.244553,169.035217 
M53.229668,153.619705 
	C53.300690,155.616043 52.973476,157.763626 53.645058,159.531876 
	C53.902103,160.208649 57.357124,160.660873 57.756538,160.092407 
	C58.654854,158.813919 59.319653,156.371887 58.651859,155.263901 
	C57.934937,154.074417 55.583675,153.869949 53.229668,153.619705 
z"/>
<path fill="#161617" opacity="1.000000" stroke="none" 
	d="
M88.139313,83.166122 
	C88.460304,81.661659 88.440048,80.166611 89.169540,79.527946 
	C90.517883,78.347504 92.305504,77.668800 93.910133,76.781082 
	C94.653671,78.438667 95.883522,80.060463 96.008919,81.763565 
	C96.144119,83.599701 95.245346,85.511971 94.775734,87.482994 
	C99.428391,87.410576 99.668076,87.082893 101.250092,79.172607 
	C104.822372,83.776047 103.013680,90.339539 97.658669,93.174095 
	C96.213959,93.938828 94.673767,95.503021 94.240692,97.006516 
	C93.150826,100.790131 91.167793,101.117767 88.425545,99.060158 
	C86.365334,97.514313 84.601868,95.572983 81.892113,93.049500 
	C80.657021,97.584312 82.259567,100.071968 84.993362,102.070625 
	C89.253235,105.184975 89.251480,105.083061 85.156815,108.099548 
	C84.586739,108.519508 84.543953,109.732422 84.370773,110.600945 
	C83.499886,114.968765 81.538162,116.262337 77.785027,113.934746 
	C74.321144,111.786507 71.454567,108.675163 68.324913,105.988029 
	C68.794930,105.234222 69.264954,104.480423 69.734978,103.726624 
	C71.546944,104.517151 73.516769,105.073509 75.128952,106.160385 
	C76.944649,107.384438 78.438095,109.086510 80.071709,110.580658 
	C80.676132,110.162987 81.280556,109.745316 81.884987,109.327644 
	C79.530052,104.961006 77.175117,100.594368 74.931656,96.434410 
	C76.246651,95.128685 77.593376,94.259003 78.285400,93.022812 
	C81.178131,87.855507 83.716011,87.499626 87.784355,91.909798 
	C88.745277,92.951469 89.706993,93.992432 91.615135,94.526787 
	C90.455513,90.871811 89.295898,87.216843 88.139313,83.166122 
z"/>
<path fill="#477E60" opacity="1.000000" stroke="none" 
	d="
M195.599976,366.935730 
	C196.248596,367.663544 196.507965,368.440247 196.796234,369.524597 
	C188.545593,372.022766 180.364075,374.783081 171.956512,376.229462 
	C164.800812,377.460480 157.833954,375.469818 151.349792,370.649841 
	C150.620865,369.468719 150.327789,368.730530 150.246063,367.862946 
	C150.717392,367.516266 150.906647,367.248932 151.025208,366.931580 
	C162.027603,375.310730 173.791809,374.517517 185.962936,369.991486 
	C182.951996,364.017151 177.483200,362.392578 172.518402,365.857391 
	C166.712479,369.909180 157.176407,367.774963 153.805008,361.399658 
	C153.346786,360.533142 154.472504,357.656372 155.218643,357.509583 
	C161.660645,356.242798 168.031265,354.394958 174.284515,359.175690 
	C177.828873,361.885468 183.150650,362.338531 186.536606,365.167023 
	C189.548904,367.683380 191.826492,368.614594 195.599976,366.935730 
z"/>
<path fill="#171718" opacity="1.000000" stroke="none" 
	d="
M55.134689,112.229645 
	C56.981781,108.861519 58.655922,105.837669 60.354214,102.770195 
	C62.930035,104.784096 62.930035,104.784096 59.444130,113.421898 
	C60.705574,114.593307 62.020180,115.814079 63.538334,117.223877 
	C64.733292,115.423538 65.800743,113.815308 67.550270,111.179443 
	C68.157951,113.197136 69.175339,114.874763 68.747787,115.420601 
	C64.793793,120.468582 68.960632,122.473701 72.166870,124.526375 
	C74.761940,126.187775 76.447960,127.663780 73.603127,131.381973 
	C70.766022,129.600143 67.918472,127.811745 64.455948,125.637115 
	C64.149826,126.381332 63.724403,127.415565 63.299431,128.448700 
	C61.406670,124.473274 59.881363,121.269630 58.356056,118.065994 
	C57.812050,118.180313 57.268040,118.294640 56.724033,118.408958 
	C56.596508,120.499428 56.468983,122.589890 56.344116,124.636818 
	C52.184818,123.467453 51.844414,120.778114 55.134689,112.229645 
z"/>
<path fill="#467D5F" opacity="1.000000" stroke="none" 
	d="
M150.883804,366.621887 
	C150.906647,367.248932 150.717392,367.516266 149.987732,367.666260 
	C148.054352,366.375488 146.590683,365.151978 145.127014,363.928467 
	C139.690598,354.764587 134.254181,345.600739 128.465958,335.843811 
	C129.994186,335.533966 131.064438,334.991974 131.981216,335.183716 
	C138.005417,336.443665 142.143906,343.295593 143.400299,349.292358 
	C144.641846,355.218292 148.200317,360.658783 150.883804,366.621887 
z"/>
<path fill="#A6CEC6" opacity="1.000000" stroke="none" 
	d="
M396.803650,193.453583 
	C397.473969,192.138458 398.126190,191.283875 398.959290,190.162628 
	C399.424133,189.725449 399.688110,189.492371 399.995178,189.394470 
	C402.078979,188.730270 404.148071,187.871689 406.282532,187.643921 
	C406.693481,187.600067 408.200928,190.576019 407.769501,191.277115 
	C406.554871,193.251083 404.771423,195.018570 402.857819,196.362991 
	C401.772430,197.125504 399.991364,196.897812 398.178528,197.214371 
	C397.484131,196.179810 397.134827,195.046967 396.803650,193.453583 
z"/>
<path fill="#A8CFC7" opacity="1.000000" stroke="none" 
	d="
M206.060028,19.531982 
	C204.013458,20.321156 201.997208,20.744997 199.568542,21.153721 
	C198.671051,20.708961 198.028580,20.367577 197.729294,19.833778 
	C196.662796,17.931679 195.713028,15.964151 194.719070,14.021389 
	C197.152252,13.998837 199.869278,13.297522 201.932297,14.160201 
	C203.705994,14.901902 204.733109,17.429014 206.060028,19.531982 
z"/>
<path fill="#A5CDC5" opacity="1.000000" stroke="none" 
	d="
M144.887665,364.234467 
	C146.590683,365.151978 148.054352,366.375488 149.776367,367.795685 
	C150.327789,368.730530 150.620865,369.468719 151.042358,370.486206 
	C148.396103,370.868896 145.570236,371.323883 142.867981,370.930206 
	C141.475327,370.727325 140.302704,369.014404 139.030655,367.983765 
	C140.262726,366.977966 141.449036,365.906494 142.750092,364.999664 
	C143.247772,364.652832 144.007843,364.682434 144.887665,364.234467 
z"/>
<path fill="#A9D0C8" opacity="1.000000" stroke="none" 
	d="
M51.422646,226.791748 
	C51.311909,229.072220 50.879967,231.281845 50.178810,233.770233 
	C48.029991,232.080414 45.773090,230.332764 44.434944,228.047195 
	C43.795891,226.955643 44.901054,224.842926 45.216187,223.192749 
	C46.635696,223.768860 48.108395,224.245407 49.452251,224.963165 
	C50.123455,225.321640 50.559204,226.120972 51.422646,226.791748 
z"/>
<path fill="#A9CFC7" opacity="1.000000" stroke="none" 
	d="
M245.722595,379.517395 
	C248.111191,379.143921 250.374908,379.075256 252.931580,379.284607 
	C252.110794,381.221191 251.302383,383.315918 249.775742,384.384613 
	C248.761734,385.094452 246.720764,384.337219 245.139496,384.236694 
	C245.292236,382.765228 245.444977,381.293701 245.722595,379.517395 
z"/>
<path fill="#19191A" opacity="1.000000" stroke="none" 
	d="
M126.080185,43.120331 
	C125.131523,42.459972 124.183647,41.972744 124.045006,41.314953 
	C123.737915,39.858006 123.472855,38.187981 123.935303,36.865177 
	C124.144737,36.266098 127.035248,35.849846 127.155594,36.099556 
	C127.815018,37.467758 128.282410,39.079124 128.226181,40.584942 
	C128.192642,41.482872 127.077194,42.340393 126.080185,43.120331 
z"/>
<path fill="#262627" opacity="1.000000" stroke="none" 
	d="
M152.162506,29.387560 
	C150.990295,27.175802 150.141876,25.078285 148.857101,21.901997 
	C155.699005,24.019596 156.172943,25.806791 152.162506,29.387560 
z"/>
<path fill="#8C623F" opacity="1.000000" stroke="none" 
	d="
M358.355927,260.801300 
	C356.783325,259.206543 355.524750,257.421936 354.407135,255.029572 
	C355.366608,242.183655 355.956116,229.924500 357.075500,217.713898 
	C357.981049,207.835815 359.694153,198.034012 360.730042,188.164902 
	C361.519165,180.646408 363.513062,172.717453 362.016937,165.591309 
	C356.314911,138.432220 341.281097,116.532272 320.691010,98.314583 
	C318.510956,96.385742 315.712585,94.944046 312.963104,93.907600 
	C301.871735,89.726547 291.200531,85.055420 282.189636,76.914833 
	C278.115173,73.233887 273.043030,70.148933 267.885925,68.266243 
	C249.586609,61.585812 230.350311,60.707191 211.271698,62.361168 
	C199.357712,63.394032 187.569656,66.840233 175.958481,70.048195 
	C168.914627,71.994293 162.722214,75.986214 158.136505,82.182655 
	C148.035522,95.831596 136.064468,107.323509 120.785736,115.328751 
	C114.370308,118.690094 109.020576,123.677689 105.207222,130.349503 
	C90.192268,156.619507 83.281998,184.533569 85.856079,214.883499 
	C87.440659,233.566605 91.892319,251.172211 101.660507,267.260925 
	C108.704941,278.863556 116.525917,289.721497 128.935608,296.387268 
	C138.390579,301.465942 146.986511,307.729614 153.204971,316.697266 
	C163.217056,331.135712 178.181351,337.103729 194.428268,340.557709 
	C207.591324,343.356140 220.878387,344.127228 234.446671,343.291046 
	C247.880722,342.463196 261.046051,340.592102 273.328094,335.503204 
	C285.248840,330.564026 296.450531,323.889404 307.967987,317.976868 
	C308.266113,320.049225 308.564209,322.121582 308.887268,324.579956 
	C303.238678,328.004272 297.580994,331.072601 291.888397,334.074829 
	C278.249176,341.268066 263.692291,345.583069 248.504196,347.993866 
	C225.330048,351.672272 202.543762,350.140991 180.241714,342.829681 
	C168.320297,338.921478 157.987640,332.654846 150.412842,322.192535 
	C144.210144,313.625275 136.395889,306.615326 126.798828,301.975861 
	C115.920837,296.717072 108.374176,288.065918 101.674438,278.431854 
	C92.549408,265.310211 86.013954,251.002167 82.682419,235.371628 
	C77.699402,211.992889 77.556572,188.573608 84.432022,165.560638 
	C87.595863,154.970856 92.077866,144.754150 96.295052,134.505234 
	C101.248947,122.465881 110.139030,113.915398 121.455566,107.819672 
	C131.234512,102.552185 140.280273,96.300842 146.452148,86.929199 
	C157.806183,69.688751 174.533249,61.811939 194.075409,58.472775 
	C219.296555,54.163242 244.398010,54.336136 268.859802,62.346615 
	C275.590240,64.550629 281.976318,68.828957 287.515930,73.378540 
	C293.921814,78.639580 300.511322,83.305580 308.408478,85.541862 
	C320.012939,88.827957 329.086823,95.850609 336.165710,104.970825 
	C344.566772,115.794495 352.741241,127.035286 359.169067,139.079834 
	C365.294006,150.556808 370.264343,163.104019 368.874390,176.697479 
	C368.120392,184.071442 365.903473,191.284332 364.689941,198.626663 
	C363.828217,203.840164 363.353424,209.137222 363.034027,214.416855 
	C362.252991,227.327591 361.763977,240.256592 360.907532,253.161667 
	C360.740204,255.683304 359.444977,258.130096 358.355927,260.801300 
z"/>
<path fill="#A47F61" opacity="1.000000" stroke="none" 
	d="
M308.124817,317.634613 
	C296.450531,323.889404 285.248840,330.564026 273.328094,335.503204 
	C261.046051,340.592102 247.880722,342.463196 234.446671,343.291046 
	C220.878387,344.127228 207.591324,343.356140 194.428268,340.557709 
	C178.181351,337.103729 163.217056,331.135712 153.204971,316.697266 
	C146.986511,307.729614 138.390579,301.465942 128.935608,296.387268 
	C116.525917,289.721497 108.704941,278.863556 101.660507,267.260925 
	C91.892319,251.172211 87.440659,233.566605 85.856079,214.883499 
	C83.281998,184.533569 90.192268,156.619507 105.207222,130.349503 
	C109.020576,123.677689 114.370308,118.690094 120.785736,115.328751 
	C136.064468,107.323509 148.035522,95.831596 158.136505,82.182655 
	C162.722214,75.986214 168.914627,71.994293 175.958481,70.048195 
	C187.569656,66.840233 199.357712,63.394032 211.271698,62.361168 
	C230.350311,60.707191 249.586609,61.585812 267.885925,68.266243 
	C273.043030,70.148933 278.115173,73.233887 282.189636,76.914833 
	C291.200531,85.055420 301.871735,89.726547 312.963104,93.907600 
	C315.712585,94.944046 318.510956,96.385742 320.691010,98.314583 
	C341.281097,116.532272 356.314911,138.432220 362.016937,165.591309 
	C363.513062,172.717453 361.519165,180.646408 360.730042,188.164902 
	C359.694153,198.034012 357.981049,207.835815 357.075500,217.713898 
	C355.956116,229.924500 355.366608,242.183655 354.285278,254.720520 
	C344.584198,243.541153 339.427673,229.938873 334.787170,215.266525 
	C335.902985,204.209061 337.222076,194.155411 340.980957,184.380081 
	C342.761475,179.749680 343.405792,173.550552 341.845612,168.993057 
	C338.110107,158.081284 333.455719,147.336166 327.851898,137.257935 
	C323.225861,128.938248 317.683197,120.611206 309.011444,115.769768 
	C297.191742,109.170845 285.002502,103.233841 272.985321,97.006714 
	C272.998932,97.000389 272.997467,97.026024 272.905029,96.795456 
	C272.626923,96.279915 272.382416,96.060516 272.034607,95.731316 
	C271.990082,95.555946 271.935547,95.198219 271.851196,94.950348 
	C271.505585,94.482491 271.244324,94.262489 270.725220,93.823036 
	C267.992889,92.020157 265.518341,90.436737 262.848877,88.570076 
	C261.055054,87.461037 259.530975,86.146187 257.845245,85.888351 
	C246.448395,84.145164 235.054794,82.172882 223.581619,81.223610 
	C217.797745,80.745064 211.849579,82.252472 205.549622,82.873871 
	C202.435425,83.253258 199.747299,83.620659 196.638214,83.982971 
	C187.580017,85.414032 179.336823,87.752846 172.483032,94.125107 
	C167.459305,92.448158 163.319199,92.987129 160.047729,96.955612 
	C156.564514,101.180962 155.991669,105.800743 158.289001,110.798355 
	C159.040649,112.433472 159.629181,114.143562 159.969650,115.997063 
	C153.745010,120.126297 147.989899,124.323067 141.904312,127.968086 
	C134.078690,132.655334 125.444275,136.395660 120.701286,144.731720 
	C110.900070,161.957916 106.500519,180.771698 106.147301,200.430283 
	C105.996521,208.822281 106.561981,217.405121 108.232697,225.609909 
	C110.704689,237.749664 112.983452,250.744568 123.051880,259.086517 
	C129.779343,264.660370 138.527893,267.813354 146.422623,271.953094 
	C151.471085,274.600311 157.459259,275.907654 159.766235,282.087341 
	C157.131546,284.805969 154.545074,287.162628 152.492447,289.917114 
	C150.009583,293.248962 148.909286,297.115784 151.043137,301.087830 
	C153.198502,305.099945 157.053894,306.143036 161.217209,305.850952 
	C165.807312,305.528900 170.370056,304.816803 175.119324,304.549316 
	C179.176910,308.353394 182.512283,313.652679 187.052567,315.057404 
	C197.724243,318.359070 208.884842,320.696686 220.007401,321.773010 
	C234.804703,323.204987 249.367081,320.577240 263.631836,316.125275 
	C282.263641,310.310333 297.968231,300.237488 309.953705,284.866394 
	C316.455597,276.527893 322.095093,267.516937 328.123596,258.809296 
	C330.256897,260.884125 332.478394,262.876678 334.506134,265.049988 
	C339.527344,270.431671 339.682892,277.522461 334.640289,282.863983 
	C331.360657,286.338074 327.973907,289.888489 324.051788,292.542633 
	C315.117035,298.588837 310.215912,306.926544 308.124817,317.634613 
z"/>
<path fill="#A98363" opacity="1.000000" stroke="none" 
	d="
M328.914337,213.931824 
	C328.330109,217.642197 327.593903,221.336319 327.194763,225.066498 
	C326.464417,231.892319 325.920319,238.738342 325.327759,245.578461 
	C325.170990,247.388062 325.121063,249.206909 324.753601,251.675766 
	C323.201263,254.454620 321.935364,256.590332 320.630646,258.702026 
	C310.936493,274.391998 300.811218,289.736206 284.691559,299.760803 
	C281.805664,301.555481 278.446198,302.588745 275.231018,303.597961 
	C274.918152,298.816071 271.084106,298.443665 268.186981,297.243225 
	C261.962372,294.663971 255.280670,292.935150 251.415665,287.053162 
	C258.619629,284.248596 265.421112,281.466400 272.570496,278.781799 
	C283.938324,285.203278 291.754028,284.819397 297.592621,276.650848 
	C303.624908,268.211365 307.892090,264.309479 299.685150,250.983200 
	C299.347137,250.434387 299.216431,249.757919 299.285583,248.956421 
	C301.701294,244.821671 303.820526,240.871429 306.169983,236.677963 
	C313.060120,233.236618 316.841492,228.042496 317.594299,220.621078 
	C318.275879,213.901581 319.226135,207.207260 319.784668,200.479172 
	C319.889008,199.222229 318.919373,197.691864 318.068970,196.574081 
	C315.395294,193.059860 312.542206,189.682114 309.825928,185.810150 
	C308.372375,178.824356 307.385590,172.095703 305.206329,165.778412 
	C301.882812,156.144058 297.150452,147.268616 286.668823,142.732773 
	C285.561615,138.901840 284.754059,135.358200 283.792664,131.856781 
	C281.512421,123.551819 279.159241,115.266891 277.171753,107.101013 
	C283.554749,109.953262 289.777008,112.353706 295.596802,115.498863 
	C300.939026,118.385941 306.458069,121.426331 310.829803,125.536613 
	C322.812286,136.802399 329.799957,151.208160 335.142090,166.592056 
	C337.231537,172.608963 337.605652,178.227692 334.850311,183.927567 
	C330.258636,193.426132 330.263245,203.807007 328.914337,213.931824 
z"/>
<path fill="#8C6440" opacity="1.000000" stroke="none" 
	d="
M275.305389,303.973572 
	C278.446198,302.588745 281.805664,301.555481 284.691559,299.760803 
	C300.811218,289.736206 310.936493,274.391998 320.630646,258.702026 
	C321.935364,256.590332 323.201263,254.454620 324.750610,252.106476 
	C325.994781,253.969116 326.973450,256.055328 328.037842,258.475403 
	C322.095093,267.516937 316.455597,276.527893 309.953705,284.866394 
	C297.968231,300.237488 282.263641,310.310333 263.631836,316.125275 
	C249.367081,320.577240 234.804703,323.204987 220.007401,321.773010 
	C208.884842,320.696686 197.724243,318.359070 187.052567,315.057404 
	C182.512283,313.652679 179.176910,308.353394 175.521454,304.476562 
	C178.769363,304.716858 181.789749,305.304596 185.001495,306.204865 
	C186.964844,307.680603 188.591034,309.263947 190.532852,309.937988 
	C202.047440,313.934998 213.896744,316.144104 226.596161,315.919312 
	C231.196915,315.943115 235.685455,317.009827 239.411423,315.775208 
	C248.178360,312.870117 257.003906,311.869110 266.147369,311.587006 
	C270.432312,311.454834 274.534943,309.249390 275.305389,303.973572 
z"/>
<path fill="#8D6340" opacity="1.000000" stroke="none" 
	d="
M329.302795,213.935745 
	C330.263245,203.807007 330.258636,193.426132 334.850311,183.927567 
	C337.605652,178.227692 337.231537,172.608963 335.142090,166.592056 
	C329.799957,151.208160 322.812286,136.802399 310.829803,125.536613 
	C306.458069,121.426331 300.939026,118.385941 295.596802,115.498863 
	C289.777008,112.353706 283.554749,109.953262 276.944092,106.853844 
	C275.244080,103.324028 274.107910,100.168533 272.971710,97.013031 
	C285.002502,103.233841 297.191742,109.170845 309.011444,115.769768 
	C317.683197,120.611206 323.225861,128.938248 327.851898,137.257935 
	C333.455719,147.336166 338.110107,158.081284 341.845612,168.993057 
	C343.405792,173.550552 342.761475,179.749680 340.980957,184.380081 
	C337.222076,194.155411 335.902985,204.209061 334.762817,214.892639 
	C333.011505,214.890518 331.351379,214.415085 329.302795,213.935745 
z"/>
<path fill="#FDFDFD" opacity="1.000000" stroke="none" 
	d="
M128.516785,56.652973 
	C128.840088,57.182728 128.918533,57.861118 128.996979,58.539509 
	C128.634033,58.300205 128.271103,58.060902 127.866211,57.490410 
	C127.973473,57.040016 128.122681,56.920815 128.516785,56.652973 
z"/>
<path fill="#FDFDFD" opacity="1.000000" stroke="none" 
	d="
M387.029907,200.982010 
	C387.117035,201.120972 387.023712,201.444839 386.721497,201.663712 
	C386.624878,201.428131 386.737183,201.297516 387.029907,200.982010 
z"/>
<path fill="#FDFDFD" opacity="1.000000" stroke="none" 
	d="
M220.209229,370.618835 
	C219.798569,370.736023 219.493042,370.509460 219.098160,369.995789 
	C219.444000,369.897491 219.879181,370.086273 220.209229,370.618835 
z"/>
<path fill="#E6F2F1" opacity="1.000000" stroke="none" 
	d="
M379.157959,109.921593 
	C382.531555,109.751343 383.864563,111.599960 382.833954,113.917221 
	C382.065735,115.644691 379.931580,117.295486 378.085358,117.794029 
	C377.128632,118.052383 374.594574,115.911339 374.319244,114.543144 
	C373.724640,111.588135 375.770172,110.055252 379.157959,109.921593 
z"/>
<path fill="#FDFDFD" opacity="1.000000" stroke="none" 
	d="
M340.328430,78.721725 
	C340.376007,78.936890 340.187531,79.357391 339.820862,79.570038 
	C339.792572,79.217140 339.942474,79.072105 340.328430,78.721725 
z"/>
<path fill="#E3F0F0" opacity="1.000000" stroke="none" 
	d="
M302.095520,30.637104 
	C305.840668,29.305752 308.483826,29.944874 310.769043,35.235416 
	C306.862610,34.962715 304.061768,34.767197 301.260956,34.571678 
	C301.435150,33.334671 301.609314,32.097664 302.095520,30.637104 
z"/>
<path fill="#E3F0EF" opacity="1.000000" stroke="none" 
	d="
M205.711273,372.669861 
	C211.542023,371.866180 209.254562,377.505920 212.346497,379.349030 
	C207.924225,382.172913 205.339233,380.231781 203.229355,377.246063 
	C201.459518,374.741547 202.668793,373.334015 205.711273,372.669861 
z"/>
<path fill="#E6F2F1" opacity="1.000000" stroke="none" 
	d="
M53.587631,153.427673 
	C55.583675,153.869949 57.934937,154.074417 58.651859,155.263901 
	C59.319653,156.371887 58.654854,158.813919 57.756538,160.092407 
	C57.357124,160.660873 53.902103,160.208649 53.645058,159.531876 
	C52.973476,157.763626 53.300690,155.616043 53.587631,153.427673 
z"/>
<path fill="#3B7454" opacity="1.000000" stroke="none" 
	d="
M272.985321,97.006714 
	C274.107910,100.168533 275.244080,103.324028 276.607910,106.726692 
	C279.159241,115.266891 281.512421,123.551819 283.792664,131.856781 
	C284.754059,135.358200 285.561615,138.901840 286.675903,143.146149 
	C287.347687,146.286331 287.782684,148.706680 288.282776,151.328308 
	C288.506470,151.779938 288.726257,151.952560 289.005188,152.018616 
	C289.003204,151.989761 288.947510,152.005417 288.948334,152.397552 
	C291.073822,161.231155 295.184357,168.598145 301.000977,175.021210 
	C301.010193,174.995422 300.955719,174.989395 301.053864,175.242065 
	C301.426178,175.725189 301.700348,175.955643 302.026672,176.519821 
	C304.638702,179.986206 307.198639,183.118866 309.758606,186.251526 
	C312.542206,189.682114 315.395294,193.059860 318.068970,196.574081 
	C318.919373,197.691864 319.889008,199.222229 319.784668,200.479172 
	C319.226135,207.207260 318.275879,213.901581 317.594299,220.621078 
	C316.841492,228.042496 313.060120,233.236618 305.773865,236.695343 
	C303.087860,237.309113 301.028259,237.662277 298.567932,237.972137 
	C292.403534,236.034271 286.533203,234.404190 280.917603,232.141968 
	C277.750610,230.866165 275.003082,228.549194 271.881653,226.453491 
	C270.143646,225.120636 268.590576,224.035477 266.851593,222.664978 
	C262.059814,220.272232 257.574799,217.812622 252.807236,216.176331 
	C249.405731,215.008911 246.449310,216.729630 245.540955,220.364120 
	C243.461670,228.683731 242.004166,237.019363 249.143097,244.347687 
	C250.235397,246.101883 251.168365,247.576797 252.100204,249.483017 
	C252.244202,258.383728 247.864441,263.207703 240.844849,261.243988 
	C237.319534,260.257812 234.408600,257.075409 231.172546,254.468430 
	C231.001617,252.634430 230.877960,251.218201 230.809525,249.379700 
	C231.359665,245.861176 231.598053,242.696884 232.397858,239.681488 
	C234.738251,230.857956 232.388947,223.644974 225.254684,218.079498 
	C224.106506,217.183807 222.017838,216.450317 220.870712,216.909073 
	C219.854980,217.315292 219.282501,219.430450 218.973587,220.888458 
	C218.121796,224.908768 218.052078,229.189880 216.594971,232.950089 
	C215.761719,235.100357 212.759781,237.861053 210.852859,237.773178 
	C208.526367,237.666016 205.407898,235.348404 204.222107,233.134918 
	C198.048157,221.610062 189.123245,212.680359 178.841873,204.473160 
	C176.817276,202.731140 174.956833,201.255310 172.923615,199.499695 
	C167.765854,194.226273 162.741348,189.271225 157.810608,184.224609 
	C154.831390,181.175354 151.997650,177.983994 149.026855,174.537842 
	C147.319611,172.513474 145.684036,170.807755 143.755157,168.941162 
	C141.993729,167.180862 140.525589,165.581436 138.912903,163.675049 
	C133.584274,157.163086 128.958679,150.784119 132.387482,141.822571 
	C134.438446,140.519196 136.209473,139.376816 138.361298,138.205048 
	C140.764938,138.836029 143.088821,139.067917 144.753784,140.237671 
	C149.617325,143.654633 154.217911,147.445847 159.087891,151.362640 
	C160.527588,152.768921 161.800995,153.902939 163.216095,155.332626 
	C168.584183,161.480698 173.503479,167.684692 181.150665,171.252319 
	C182.789017,172.413467 184.227310,173.316864 185.749969,174.557495 
	C192.371368,181.166977 198.717545,187.656998 205.524017,193.621765 
	C209.054337,196.715530 212.974915,194.621277 212.856949,189.893921 
	C212.808228,187.941666 211.797852,185.635010 210.476364,184.160233 
	C205.502716,178.609604 200.220917,173.335083 194.921875,167.660294 
	C193.590576,165.874191 192.391937,164.384933 191.096603,162.563416 
	C186.689209,156.445663 182.378525,150.660187 177.924347,144.580902 
	C176.594421,142.501617 175.408020,140.716125 174.125824,138.585663 
	C170.720474,132.445129 167.410889,126.649590 164.032593,120.525589 
	C162.740005,118.737877 161.516144,117.278625 160.292297,115.819374 
	C159.629181,114.143562 159.040649,112.433472 158.289001,110.798355 
	C155.991669,105.800743 156.564514,101.180962 160.047729,96.955612 
	C163.319199,92.987129 167.459305,92.448158 172.653290,94.386047 
	C174.445480,95.807121 175.677383,96.924286 177.050415,98.358635 
	C178.724594,101.589554 180.113541,104.590942 181.821609,107.398163 
	C185.057953,112.717194 188.477371,117.924858 191.901367,123.496399 
	C193.019684,125.201759 194.057373,126.589516 195.224152,128.280914 
	C201.538605,135.437286 207.723984,142.290039 214.063461,149.430405 
	C215.506439,151.472336 216.795319,153.226639 218.199219,155.298874 
	C222.870956,161.266754 227.358704,166.975037 232.044601,172.515747 
	C232.945694,173.581192 234.624619,173.988815 235.944733,174.699905 
	C235.962906,173.080353 236.613998,171.065430 235.891357,169.908676 
	C232.487076,164.459305 228.706207,159.245209 225.003250,153.608093 
	C223.970505,151.505219 222.994202,149.741425 221.970062,147.618713 
	C217.327606,138.817612 212.732971,130.375427 208.097656,121.586548 
	C207.330063,119.803925 206.603165,118.367989 205.771851,116.611221 
	C204.252792,114.089310 202.959671,111.797653 201.399963,109.704674 
	C197.240189,104.122559 193.243912,98.511101 193.799103,90.675598 
	C194.934128,88.206070 195.996643,86.097061 197.059174,83.988052 
	C199.747299,83.620659 202.435425,83.253258 205.889114,82.976852 
	C209.086548,84.717781 211.518433,86.367729 214.104034,88.321640 
	C215.705673,90.825760 217.254852,92.966705 218.582306,95.237267 
	C222.415115,101.793205 226.158600,108.401352 230.000839,115.332657 
	C231.410065,117.778465 232.755615,119.880615 234.230179,122.299805 
	C242.058411,135.811661 249.735168,149.019699 257.484711,162.184906 
	C258.471924,163.862045 259.575287,165.710999 261.118439,166.740295 
	C262.237061,167.486420 264.374084,167.483582 265.678497,166.927261 
	C266.722931,166.481842 267.981018,164.565323 267.802185,163.534531 
	C266.330017,155.048477 264.544128,146.616837 262.888336,137.747910 
	C262.563324,134.888351 262.203278,132.449585 261.862610,129.620956 
	C259.815491,121.374634 257.939117,113.461296 255.611740,105.682899 
	C254.202972,100.974670 254.401855,96.565483 256.490601,91.919228 
	C258.861481,90.768150 260.952667,89.810730 263.043823,88.853310 
	C265.518341,90.436737 267.992889,92.020157 270.826904,94.057144 
	C271.436127,94.739883 271.685822,94.969055 271.935547,95.198227 
	C271.935547,95.198219 271.990082,95.555946 272.108490,95.976601 
	C272.483765,96.606842 272.740601,96.816437 272.997467,97.026024 
	C272.997467,97.026024 272.998932,97.000389 272.985321,97.006714 
z"/>
<path fill="#3B7454" opacity="1.000000" stroke="none" 
	d="
M275.231018,303.597961 
	C274.534943,309.249390 270.432312,311.454834 266.147369,311.587006 
	C257.003906,311.869110 248.178360,312.870117 239.411423,315.775208 
	C235.685455,317.009827 231.196915,315.943115 226.394897,315.640991 
	C218.575928,310.919830 211.370209,306.511902 202.626343,306.147919 
	C196.694336,305.901031 190.749344,305.966522 184.810150,305.892334 
	C181.789749,305.304596 178.769363,304.716858 175.346832,304.201843 
	C170.370056,304.816803 165.807312,305.528900 161.217209,305.850952 
	C157.053894,306.143036 153.198502,305.099945 151.043137,301.087830 
	C148.909286,297.115784 150.009583,293.248962 152.492447,289.917114 
	C154.545074,287.162628 157.131546,284.805969 160.066040,281.978149 
	C162.473572,280.557800 164.296555,279.432373 166.518890,278.242737 
	C173.288239,277.443817 179.658264,276.709076 186.390259,276.148071 
	C189.504227,276.556183 192.256210,276.790619 195.006561,277.008057 
	C195.004913,276.991058 194.972641,277.002167 195.149338,277.232666 
	C195.876404,277.561676 196.426773,277.660187 197.433990,277.810760 
	C204.548050,278.796448 210.684052,277.180664 216.634735,274.269501 
	C224.287674,270.525543 231.729202,271.034668 238.684433,276.052032 
	C241.226837,277.886078 243.556686,280.014771 246.128647,282.300476 
	C247.853592,284.086426 249.433395,285.580963 251.013184,287.075531 
	C255.280670,292.935150 261.962372,294.663971 268.186981,297.243225 
	C271.084106,298.443665 274.918152,298.816071 275.231018,303.597961 
z"/>
<path fill="#8D6440" opacity="1.000000" stroke="none" 
	d="
M166.119537,278.306915 
	C164.296555,279.432373 162.473572,280.557800 160.350784,281.792450 
	C157.459259,275.907654 151.471085,274.600311 146.422623,271.953094 
	C138.527893,267.813354 129.779343,264.660370 123.051880,259.086517 
	C112.983452,250.744568 110.704689,237.749664 108.232697,225.609909 
	C106.561981,217.405121 105.996521,208.822281 106.147301,200.430283 
	C106.500519,180.771698 110.900070,161.957916 120.701286,144.731720 
	C125.444275,136.395660 134.078690,132.655334 141.904312,127.968086 
	C147.989899,124.323067 153.745010,120.126297 159.969650,115.997063 
	C161.516144,117.278625 162.740005,118.737877 163.728882,120.702194 
	C159.070175,124.277306 154.686569,127.407356 150.210785,130.399551 
	C146.186600,133.089828 142.061218,135.628754 137.980484,138.234436 
	C136.209473,139.376816 134.438446,140.519196 132.030182,141.864288 
	C128.654022,145.694397 125.147430,148.970596 123.301018,153.006348 
	C111.498466,178.803452 108.802528,205.564835 116.227158,233.080063 
	C119.409996,244.875473 124.037994,255.784149 136.495590,261.031921 
	C143.079407,263.805359 149.508499,266.946106 156.308533,270.086670 
	C159.779602,272.937195 162.949570,275.622070 166.119537,278.306915 
z"/>
<path fill="#8D6440" opacity="1.000000" stroke="none" 
	d="
M213.950302,88.017677 
	C211.518433,86.367729 209.086548,84.717781 206.315186,82.964851 
	C211.849579,82.252472 217.797745,80.745064 223.581619,81.223610 
	C235.054794,82.172882 246.448395,84.145164 257.845245,85.888351 
	C259.530975,86.146187 261.055054,87.461037 262.848877,88.570076 
	C260.952667,89.810730 258.861481,90.768150 256.207336,91.641159 
	C253.739685,91.037910 251.855637,90.420715 249.926971,90.016319 
	C238.039505,87.523750 226.030762,87.097466 213.950302,88.017677 
z"/>
<path fill="#8C6440" opacity="1.000000" stroke="none" 
	d="
M196.638214,83.982971 
	C195.996643,86.097061 194.934128,88.206070 193.427124,90.665390 
	C187.624863,93.357620 182.267059,95.699532 176.909271,98.041443 
	C175.677383,96.924286 174.445480,95.807121 173.043320,94.429008 
	C179.336823,87.752846 187.580017,85.414032 196.638214,83.982971 
z"/>
<path fill="#8D6340" opacity="1.000000" stroke="none" 
	d="
M271.851196,94.950356 
	C271.685822,94.969055 271.436127,94.739883 271.084717,94.276596 
	C271.244324,94.262489 271.505585,94.482491 271.851196,94.950356 
z"/>
<path fill="#8D6340" opacity="1.000000" stroke="none" 
	d="
M272.905029,96.795456 
	C272.740601,96.816437 272.483765,96.606842 272.153015,96.151970 
	C272.382416,96.060516 272.626923,96.279915 272.905029,96.795456 
z"/>
<path fill="#3C7454" opacity="1.000000" stroke="none" 
	d="
M298.989105,249.140930 
	C299.216431,249.757919 299.347137,250.434387 299.685150,250.983200 
	C307.892090,264.309479 303.624908,268.211365 297.592621,276.650848 
	C291.754028,284.819397 283.938324,285.203278 272.517822,278.425537 
	C271.691559,276.300598 271.265808,274.629517 270.888977,272.563629 
	C271.359192,270.593536 271.666351,268.976746 272.221191,267.449982 
	C274.803528,260.344452 274.430756,259.654419 268.570709,255.052551 
	C265.114532,252.338470 262.173004,248.969009 258.957062,245.563019 
	C258.006470,243.465530 257.098846,241.699295 256.177673,239.548599 
	C255.959412,234.485336 258.527710,232.349976 263.227661,231.935898 
	C265.298492,232.749054 267.017273,233.473282 268.947876,234.474258 
	C271.893524,236.158142 274.532654,237.807465 277.381104,238.921539 
	C283.145050,241.175873 289.022552,243.139954 295.036621,245.480774 
	C296.476379,246.872192 297.732727,248.006561 298.989105,249.140930 
z"/>
<path fill="#8C6440" opacity="1.000000" stroke="none" 
	d="
M288.217712,151.127014 
	C287.782684,148.706680 287.347687,146.286331 286.905640,143.452606 
	C297.150452,147.268616 301.882812,156.144058 305.206329,165.778412 
	C307.385590,172.095703 308.372375,178.824356 309.825928,185.810150 
	C307.198639,183.118866 304.638702,179.986206 301.929993,176.261841 
	C301.506042,175.443222 301.230865,175.216309 300.955719,174.989395 
	C300.955719,174.989395 301.010193,174.995422 301.015472,174.605255 
	C300.294464,166.123383 296.353241,159.459396 291.556488,153.216309 
	C291.038666,152.542343 289.833740,152.396332 288.947510,152.005432 
	C288.947510,152.005417 289.003204,151.989761 288.919495,151.827576 
	C288.686066,151.421265 288.480042,151.241806 288.217712,151.127014 
z"/>
<path fill="#8D6440" opacity="1.000000" stroke="none" 
	d="
M270.840027,272.958374 
	C271.265808,274.629517 271.691559,276.300598 272.169952,278.327942 
	C265.421112,281.466400 258.619629,284.248596 251.415665,287.053162 
	C249.433395,285.580963 247.853592,284.086426 246.538040,282.277771 
	C254.814865,278.961945 262.827454,275.960175 270.840027,272.958374 
z"/>
<path fill="#8B6441" opacity="1.000000" stroke="none" 
	d="
M299.285583,248.956421 
	C297.732727,248.006561 296.476379,246.872192 295.302307,245.239014 
	C296.579315,242.498611 297.773987,240.257019 298.968628,238.015427 
	C301.028259,237.662277 303.087860,237.309113 305.543610,236.938568 
	C303.820526,240.871429 301.701294,244.821671 299.285583,248.956421 
z"/>
<path fill="#A48161" opacity="1.000000" stroke="none" 
	d="
M185.001495,306.204865 
	C190.749344,305.966522 196.694336,305.901031 202.626343,306.147919 
	C211.370209,306.511902 218.575928,310.919830 225.936142,315.638031 
	C213.896744,316.144104 202.047440,313.934998 190.532852,309.937988 
	C188.591034,309.263947 186.964844,307.680603 185.001495,306.204865 
z"/>
<path fill="#B18966" opacity="1.000000" stroke="none" 
	d="
M270.888977,272.563599 
	C262.827454,275.960175 254.814865,278.961945 246.392883,281.986389 
	C243.556686,280.014771 241.226837,277.886078 238.684433,276.052032 
	C231.729202,271.034668 224.287674,270.525543 216.634735,274.269501 
	C210.684052,277.180664 204.548050,278.796448 197.235886,277.619141 
	C196.044830,277.251038 195.508743,277.126587 194.972641,277.002167 
	C194.972641,277.002167 195.004913,276.991058 194.869034,276.697479 
	C193.624420,274.959686 192.337662,273.618134 191.435776,272.054626 
	C185.414017,261.615173 177.357498,253.414352 166.481094,247.902039 
	C159.054504,244.138138 153.164185,238.546082 150.370117,230.424835 
	C144.050980,212.057632 143.526672,193.516434 149.098541,174.856491 
	C151.997650,177.983994 154.831390,181.175354 157.810608,184.224609 
	C162.741348,189.271225 167.765854,194.226273 172.878754,199.980865 
	C172.413773,208.875061 173.831757,216.734802 177.273102,224.033356 
	C180.833771,231.584961 185.089630,238.565994 193.633881,241.965195 
	C199.614426,244.344467 205.097046,247.953461 210.877853,250.862595 
	C217.262970,254.075821 223.683868,257.375275 231.219818,254.886185 
	C234.408600,257.075409 237.319534,260.257812 240.844849,261.243988 
	C247.864441,263.207703 252.244202,258.383728 252.403183,249.331512 
	C254.804871,247.797211 256.902466,246.845749 259.000031,245.894272 
	C262.173004,248.969009 265.114532,252.338470 268.570709,255.052551 
	C274.430756,259.654419 274.803528,260.344452 272.221191,267.449982 
	C271.666351,268.976746 271.359192,270.593536 270.888977,272.563599 
z"/>
<path fill="#AA8363" opacity="1.000000" stroke="none" 
	d="
M156.007446,269.921021 
	C149.508499,266.946106 143.079407,263.805359 136.495590,261.031921 
	C124.037994,255.784149 119.409996,244.875473 116.227158,233.080063 
	C108.802528,205.564835 111.498466,178.803452 123.301018,153.006348 
	C125.147430,148.970596 128.654022,145.694397 131.750244,142.025299 
	C128.958679,150.784119 133.584274,157.163086 138.552063,163.728394 
	C137.303452,165.293228 135.693787,166.346802 135.332932,167.726883 
	C133.071335,176.376511 129.918610,185.008499 129.237915,193.814621 
	C127.394180,217.667435 133.879822,239.459930 148.188980,258.800842 
	C150.883163,262.442444 153.405701,266.211029 156.007446,269.921021 
z"/>
<path fill="#AD8664" opacity="1.000000" stroke="none" 
	d="
M156.308533,270.086670 
	C153.405701,266.211029 150.883163,262.442444 148.188980,258.800842 
	C133.879822,239.459930 127.394180,217.667435 129.237915,193.814621 
	C129.918610,185.008499 133.071335,176.376511 135.332932,167.726883 
	C135.693787,166.346802 137.303452,165.293228 138.696625,164.035370 
	C140.525589,165.581436 141.993729,167.180862 143.694885,169.309479 
	C138.231262,185.188828 137.711411,201.001221 140.094040,216.969467 
	C142.486633,233.004440 149.049530,246.577072 164.410904,254.103378 
	C174.235291,258.916870 181.248230,266.286743 186.028275,275.974365 
	C179.658264,276.709076 173.288239,277.443817 166.518890,278.242737 
	C162.949570,275.622070 159.779602,272.937195 156.308533,270.086670 
z"/>
<path fill="#A98463" opacity="1.000000" stroke="none" 
	d="
M214.104034,88.321640 
	C226.030762,87.097466 238.039505,87.523750 249.926971,90.016319 
	C251.855637,90.420715 253.739685,91.037910 255.927612,91.834808 
	C254.401855,96.565483 254.202972,100.974670 255.611740,105.682899 
	C257.939117,113.461296 259.815491,121.374634 261.528687,129.573486 
	C259.271271,128.627136 257.367096,127.338356 255.462921,126.049591 
	C247.648468,120.760818 239.903824,115.310921 229.937164,114.988998 
	C226.158600,108.401352 222.415115,101.793205 218.582306,95.237267 
	C217.254852,92.966705 215.705673,90.825760 214.104034,88.321640 
z"/>
<path fill="#B58E67" opacity="1.000000" stroke="none" 
	d="
M179.006042,204.739349 
	C189.123245,212.680359 198.048157,221.610062 204.222107,233.134918 
	C205.407898,235.348404 208.526367,237.666016 210.852859,237.773178 
	C212.759781,237.861053 215.761719,235.100357 216.594971,232.950089 
	C218.052078,229.189880 218.121796,224.908768 218.973587,220.888458 
	C219.282501,219.430450 219.854980,217.315292 220.870712,216.909073 
	C222.017838,216.450317 224.106506,217.183807 225.254684,218.079498 
	C232.388947,223.644974 234.738251,230.857956 232.397858,239.681488 
	C231.598053,242.696884 231.359665,245.861176 230.399933,249.423798 
	C227.006454,249.458740 223.775833,249.676956 221.202682,248.480789 
	C211.303879,243.879211 200.940643,239.805298 192.032059,233.672974 
	C182.464539,227.087067 179.699646,216.050415 179.006042,204.739349 
z"/>
<path fill="#8D6440" opacity="1.000000" stroke="none" 
	d="
M186.390259,276.148071 
	C181.248230,266.286743 174.235291,258.916870 164.410904,254.103378 
	C149.049530,246.577072 142.486633,233.004440 140.094040,216.969467 
	C137.711411,201.001221 138.231262,185.188828 143.988174,169.470367 
	C145.684036,170.807755 147.319611,172.513474 149.026855,174.537842 
	C143.526672,193.516434 144.050980,212.057632 150.370117,230.424835 
	C153.164185,238.546082 159.054504,244.138138 166.481094,247.902039 
	C177.357498,253.414352 185.414017,261.615173 191.435776,272.054626 
	C192.337662,273.618134 193.624420,274.959686 194.870682,276.714478 
	C192.256210,276.790619 189.504227,276.556183 186.390259,276.148071 
z"/>
<path fill="#B08966" opacity="1.000000" stroke="none" 
	d="
M262.853302,138.168701 
	C264.544128,146.616837 266.330017,155.048477 267.802185,163.534531 
	C267.981018,164.565323 266.722931,166.481842 265.678497,166.927261 
	C264.374084,167.483582 262.237061,167.486420 261.118439,166.740295 
	C259.575287,165.710999 258.471924,163.862045 257.484711,162.184906 
	C249.735168,149.019699 242.058411,135.811661 234.601379,122.313248 
	C239.247543,124.183754 243.786728,126.125702 248.020645,128.591751 
	C253.100784,131.550705 257.920685,134.956451 262.853302,138.168701 
z"/>
<path fill="#AB8564" opacity="1.000000" stroke="none" 
	d="
M138.361298,138.205048 
	C142.061218,135.628754 146.186600,133.089828 150.210785,130.399551 
	C154.686569,127.407356 159.070175,124.277306 163.797607,121.030655 
	C167.410889,126.649590 170.720474,132.445129 173.934143,138.880905 
	C168.866028,143.377548 163.893799,147.233963 158.921570,151.090393 
	C154.217911,147.445847 149.617325,143.654633 144.753784,140.237671 
	C143.088821,139.067917 140.764938,138.836029 138.361298,138.205048 
z"/>
<path fill="#8D6440" opacity="1.000000" stroke="none" 
	d="
M178.841873,204.473160 
	C179.699646,216.050415 182.464539,227.087067 192.032059,233.672974 
	C200.940643,239.805298 211.303879,243.879211 221.202682,248.480789 
	C223.775833,249.676956 227.006454,249.458740 230.344696,249.846069 
	C230.877960,251.218201 231.001617,252.634430 231.172546,254.468430 
	C223.683868,257.375275 217.262970,254.075821 210.877853,250.862595 
	C205.097046,247.953461 199.614426,244.344467 193.633881,241.965195 
	C185.089630,238.565994 180.833771,231.584961 177.273102,224.033356 
	C173.831757,216.734802 172.413773,208.875061 173.051544,200.260651 
	C174.956833,201.255310 176.817276,202.731140 178.841873,204.473160 
z"/>
<path fill="#A88363" opacity="1.000000" stroke="none" 
	d="
M177.050415,98.358643 
	C182.267059,95.699532 187.624863,93.357620 193.354614,91.025909 
	C193.243912,98.511101 197.240189,104.122559 201.399963,109.704674 
	C202.959671,111.797653 204.252792,114.089310 205.400787,116.648193 
	C200.696320,119.063599 196.258545,121.121185 191.820740,123.178780 
	C188.477371,117.924858 185.057953,112.717194 181.821609,107.398163 
	C180.113541,104.590942 178.724594,101.589554 177.050415,98.358643 
z"/>
<path fill="#B58E68" opacity="1.000000" stroke="none" 
	d="
M262.875641,231.846970 
	C258.527710,232.349976 255.959412,234.485336 255.848572,239.686462 
	C253.349960,241.495316 251.166855,242.781876 248.983765,244.068436 
	C242.004166,237.019363 243.461670,228.683731 245.540955,220.364120 
	C246.449310,216.729630 249.405731,215.008911 252.807236,216.176331 
	C257.574799,217.812622 262.059814,220.272232 266.600616,222.909210 
	C265.315582,226.241501 264.095612,229.044235 262.875641,231.846970 
z"/>
<path fill="#B08966" opacity="1.000000" stroke="none" 
	d="
M178.067856,144.874710 
	C182.378525,150.660187 186.689209,156.445663 190.893112,162.857040 
	C187.507767,165.986832 184.229187,168.490707 180.950607,170.994583 
	C173.503479,167.684692 168.584183,161.480698 163.519226,155.180389 
	C168.476410,151.446548 173.272125,148.160629 178.067856,144.874710 
z"/>
<path fill="#B78F68" opacity="1.000000" stroke="none" 
	d="
M195.054535,167.957153 
	C200.220917,173.335083 205.502716,178.609604 210.476364,184.160233 
	C211.797852,185.635010 212.808228,187.941666 212.856949,189.893921 
	C212.974915,194.621277 209.054337,196.715530 205.524017,193.621765 
	C198.717545,187.656998 192.371368,181.166977 186.091751,174.391846 
	C189.250961,171.911697 192.152740,169.934418 195.054535,167.957153 
z"/>
<path fill="#AE8965" opacity="1.000000" stroke="none" 
	d="
M213.909363,149.142776 
	C207.723984,142.290039 201.538605,135.437286 195.514832,128.108963 
	C199.830414,125.733322 203.984375,123.833282 208.138336,121.933243 
	C212.732971,130.375427 217.327606,138.817612 221.555511,147.633972 
	C218.762299,148.386368 216.335831,148.764572 213.909363,149.142776 
z"/>
<path fill="#8C6440" opacity="1.000000" stroke="none" 
	d="
M262.888336,137.747910 
	C257.920685,134.956451 253.100784,131.550705 248.020645,128.591751 
	C243.786728,126.125702 239.247543,124.183754 234.472351,121.996216 
	C232.755615,119.880615 231.410065,117.778465 230.000839,115.332657 
	C239.903824,115.310921 247.648468,120.760818 255.462921,126.049591 
	C257.367096,127.338356 259.271271,128.627136 261.509338,129.963348 
	C262.203278,132.449585 262.563324,134.888351 262.888336,137.747910 
z"/>
<path fill="#AD8965" opacity="1.000000" stroke="none" 
	d="
M298.567932,237.972137 
	C297.773987,240.257019 296.579315,242.498611 295.118927,244.981964 
	C289.022552,243.139954 283.145050,241.175873 277.381104,238.921539 
	C274.532654,237.807465 271.893524,236.158142 269.056458,234.110046 
	C269.990967,231.213120 271.028778,228.957169 272.066589,226.701218 
	C275.003082,228.549194 277.750610,230.866165 280.917603,232.141968 
	C286.533203,234.404190 292.403534,236.034271 298.567932,237.972137 
z"/>
<path fill="#B18D67" opacity="1.000000" stroke="none" 
	d="
M225.059677,153.947174 
	C228.706207,159.245209 232.487076,164.459305 235.891357,169.908676 
	C236.613998,171.065430 235.962906,173.080353 235.944733,174.699905 
	C234.624619,173.988815 232.945694,173.581192 232.044601,172.515747 
	C227.358704,166.975037 222.870956,161.266754 218.550537,155.141876 
	C220.877808,154.427017 222.968735,154.187088 225.059677,153.947174 
z"/>
<path fill="#8D6440" opacity="1.000000" stroke="none" 
	d="
M177.924347,144.580902 
	C173.272125,148.160629 168.476410,151.446548 163.377533,154.884705 
	C161.800995,153.902939 160.527588,152.768921 159.087891,151.362640 
	C163.893799,147.233963 168.866028,143.377548 174.029938,139.225891 
	C175.408020,140.716125 176.594421,142.501617 177.924347,144.580902 
z"/>
<path fill="#8C6440" opacity="1.000000" stroke="none" 
	d="
M208.097656,121.586548 
	C203.984375,123.833282 199.830414,125.733322 195.385773,127.805313 
	C194.057373,126.589516 193.019684,125.201759 191.901367,123.496391 
	C196.258545,121.121185 200.696320,119.063599 205.505188,116.969025 
	C206.603165,118.367989 207.330063,119.803925 208.097656,121.586548 
z"/>
<path fill="#A88462" opacity="1.000000" stroke="none" 
	d="
M288.948334,152.397552 
	C289.833740,152.396332 291.038666,152.542343 291.556488,153.216309 
	C296.353241,159.459396 300.294464,166.123383 301.006256,174.631058 
	C295.184357,168.598145 291.073822,161.231155 288.948334,152.397552 
z"/>
<path fill="#8D6440" opacity="1.000000" stroke="none" 
	d="
M194.921875,167.660294 
	C192.152740,169.934418 189.250961,171.911697 186.007385,174.054626 
	C184.227310,173.316864 182.789017,172.413467 181.150665,171.252319 
	C184.229187,168.490707 187.507767,165.986832 190.989822,163.189331 
	C192.391937,164.384933 193.590576,165.874191 194.921875,167.660294 
z"/>
<path fill="#8C6541" opacity="1.000000" stroke="none" 
	d="
M271.881653,226.453491 
	C271.028778,228.957169 269.990967,231.213120 268.844635,233.833282 
	C267.017273,233.473282 265.298492,232.749054 263.227661,231.935898 
	C264.095612,229.044235 265.315582,226.241501 266.786530,223.194550 
	C268.590576,224.035477 270.143646,225.120636 271.881653,226.453491 
z"/>
<path fill="#8B6440" opacity="1.000000" stroke="none" 
	d="
M225.003250,153.608078 
	C222.968735,154.187088 220.877808,154.427017 218.435547,154.823944 
	C216.795319,153.226639 215.506439,151.472336 214.063461,149.430405 
	C216.335831,148.764572 218.762299,148.386368 221.603333,147.992905 
	C222.994202,149.741425 223.970505,151.505219 225.003250,153.608078 
z"/>
<path fill="#8B6541" opacity="1.000000" stroke="none" 
	d="
M249.143097,244.347687 
	C251.166855,242.781876 253.349960,241.495316 255.862152,240.070923 
	C257.098846,241.699295 258.006470,243.465530 258.957062,245.563019 
	C256.902466,246.845749 254.804871,247.797211 252.404312,248.900208 
	C251.168365,247.576797 250.235397,246.101883 249.143097,244.347687 
z"/>
<path fill="#A88462" opacity="1.000000" stroke="none" 
	d="
M288.282776,151.328308 
	C288.480042,151.241806 288.686066,151.421265 288.921478,151.856415 
	C288.726257,151.952560 288.506470,151.779938 288.282776,151.328308 
z"/>
<path fill="#A88462" opacity="1.000000" stroke="none" 
	d="
M301.053864,175.242065 
	C301.230865,175.216309 301.506042,175.443222 301.877869,175.928131 
	C301.700348,175.955643 301.426178,175.725189 301.053864,175.242065 
z"/>
<path fill="#8D6440" opacity="1.000000" stroke="none" 
	d="
M195.149338,277.232666 
	C195.508743,277.126587 196.044830,277.251038 196.779022,277.567078 
	C196.426773,277.660187 195.876404,277.561676 195.149338,277.232666 
z"/>
</svg>